<?xml version="1.0" encoding="iso-8859-1"?>
<!-- Generator: Adobe Illustrator 16.0.0, SVG Export Plug-In . SVG Version: 6.00 Build 0)  -->
<!DOCTYPE svg PUBLIC "-//W3C//DTD SVG 1.1//EN" "http://www.w3.org/Graphics/SVG/1.1/DTD/svg11.dtd">
<svg version="1.1" id="Capa_1" xmlns="http://www.w3.org/2000/svg" xmlns:xlink="http://www.w3.org/1999/xlink" x="0px" y="0px"
	 width="45.9px" height="45.9px" viewBox="0 0 45.9 45.9" style="enable-background:new 0 0 45.9 45.9;" xml:space="preserve">
<g>
	<path d="M25.044,34.221c0,0.461-0.938,0.836-2.091,0.836c-1.154,0-2.091-0.375-2.091-0.836c0-0.463,0.937-0.836,2.091-0.836
		C24.106,33.385,25.044,33.76,25.044,34.221z M17.272,27.068c-1.116,0-2.024,0.906-2.024,2.023c0,1.116,0.908,2.025,2.024,2.025
		c1.116,0,2.024-0.909,2.024-2.025C19.296,27.975,18.388,27.068,17.272,27.068z M28.634,27.068c-1.115,0-2.023,0.906-2.023,2.023
		c0,1.116,0.908,2.025,2.023,2.025c1.116,0,2.024-0.909,2.024-2.025C30.658,27.975,29.75,27.068,28.634,27.068z M40.957,32.026
		c0,2.466-1.549,4.559-3.678,5.26c-2.729,5.231-8.216,8.614-14.3,8.614c-6.08,0-11.559-3.371-14.29-8.596
		c-2.161-0.68-3.74-2.789-3.74-5.278c0-1.788,0.813-3.382,2.074-4.388c0.101-0.94,0.266-1.971,0.494-2.955H6.31
		c-0.931,0-1.684-0.752-1.684-1.683c0-0.803,0.564-1.472,1.316-1.64h2.821H9.96h0.777h2.065h0.016h20.28h0.002h2.062h0.777h1.24
		h2.778c0.752,0.168,1.315,0.837,1.315,1.64c0,0.931-0.752,1.683-1.684,1.683h-1.156c0.232,1.006,0.399,2.051,0.502,3.002
		C40.167,28.695,40.957,30.264,40.957,32.026z M37.591,32.026c0-1.183-0.832-2.142-1.871-2.144c-0.287,0.489-0.615,0.961-0.986,1.41
		c0.348-1.193,0.537-2.423,0.537-3.642c0-1.065-0.156-2.052-0.426-2.968H11.061c-0.269,0.918-0.426,1.901-0.426,2.968
		c0,1.219,0.19,2.448,0.538,3.642c-0.373-0.449-0.7-0.92-0.986-1.41c-1.039,0.002-1.872,0.961-1.872,2.144
		c0,1.185,0.836,2.144,1.876,2.144c0.26,0,0.506-0.061,0.73-0.168c1.7,4.958,6.451,8.532,12.059,8.532
		c5.601,0,10.346-3.563,12.051-8.517c0.212,0.097,0.44,0.151,0.685,0.151C36.755,34.17,37.591,33.21,37.591,32.026z M11.733,18.649
		h0.27h3.732h0.566h13.303h0.553h3.746h0.27h1.03h0.653V4.488C35.856,2.013,33.843,0,31.368,0h-16.83
		c-2.475,0-4.488,2.013-4.488,4.488v14.161h0.663H11.733z"/>
</g>
<g>
</g>
<g>
</g>
<g>
</g>
<g>
</g>
<g>
</g>
<g>
</g>
<g>
</g>
<g>
</g>
<g>
</g>
<g>
</g>
<g>
</g>
<g>
</g>
<g>
</g>
<g>
</g>
<g>
</g>
</svg>
