<?xml version="1.0" encoding="iso-8859-1"?>
<!-- Generator: Adobe Illustrator 16.0.0, SVG Export Plug-In . SVG Version: 6.00 Build 0)  -->
<!DOCTYPE svg PUBLIC "-//W3C//DTD SVG 1.1//EN" "http://www.w3.org/Graphics/SVG/1.1/DTD/svg11.dtd">
<svg version="1.1" id="Capa_1" xmlns="http://www.w3.org/2000/svg" xmlns:xlink="http://www.w3.org/1999/xlink" x="0px" y="0px"
	 width="45.129px" height="45.13px" viewBox="0 0 45.129 45.13" style="enable-background:new 0 0 45.129 45.13;"
	 xml:space="preserve">
<g>
	<g>
		<ellipse cx="22.565" cy="31.192" rx="2.5" ry="1"/>
		<path d="M42.69,24.469V15.9c0-0.597-0.05-1.143-0.122-1.665c-0.012-0.081-0.007-0.146-0.022-0.23
			c-0.015-0.071-0.039-0.145-0.055-0.215c-0.137-0.742-0.349-1.41-0.631-2.008c-2.197-5.18-8.434-10.07-15.628-11.467
			C18.577-1.169,10.426,2.799,8.499,7.719C4.841,8.797,2.44,11.119,2.44,15.9v8.573c-0.857,1.123-1.375,2.544-1.375,4.094
			c0,2.971,1.887,5.483,4.464,6.291C8.79,41.101,15.335,45.13,22.596,45.13c7.269,0,13.821-4.039,17.081-10.295
			c2.539-0.832,4.389-3.326,4.389-6.269C44.065,27.018,43.547,25.592,42.69,24.469z M37.823,31.129c-0.29,0-0.564-0.066-0.818-0.183
			c-2.039,5.918-7.711,10.183-14.406,10.183c-6.703,0-12.384-4.272-14.415-10.2c-0.27,0.129-0.563,0.2-0.874,0.2
			c-1.244,0-2.242-1.146-2.242-2.563s0.998-2.562,2.242-2.562c0.022,0,0.045,0.006,0.069,0.008c0.016-2,0.439-5.16,1.178-7.067
			c0.972,1.358,2.458,2.628,4.645,2.628c0,0,0,0,0.002,0c0.102,0,0.204-0.003,0.309-0.009c0.203-0.011,0.379-0.144,0.445-0.335
			c0.019-0.053,1.844-5.146,6.644-5.635c0.202,0.992,0.508,3.69-1.665,5.32c-0.161,0.12-0.234,0.325-0.186,0.521
			s0.211,0.342,0.41,0.372c0.041,0.007,1.035,0.153,2.516,0.153c2.524,0,7.11-0.459,10.099-3.461
			c0.501,0.504,1.382,1.743,0.97,3.973c-0.039,0.208,0.059,0.418,0.241,0.523c0.078,0.045,0.164,0.065,0.25,0.065
			c0.116,0,0.231-0.041,0.325-0.12c0.107-0.092,1.964-1.695,3.273-3.47c0.617,1.924,0.972,4.711,0.983,6.529
			c0.003,0,0.005,0,0.007,0c1.244,0,2.242,1.146,2.242,2.562S39.067,31.129,37.823,31.129z"/>
		<circle cx="15.773" cy="25.061" r="2.25"/>
		<circle cx="29.357" cy="25.061" r="2.25"/>
	</g>
</g>
<g>
</g>
<g>
</g>
<g>
</g>
<g>
</g>
<g>
</g>
<g>
</g>
<g>
</g>
<g>
</g>
<g>
</g>
<g>
</g>
<g>
</g>
<g>
</g>
<g>
</g>
<g>
</g>
<g>
</g>
</svg>
