<svg id="Capa_1" enable-background="new 0 0 512 512" height="512" viewBox="0 0 512 512" width="512" xmlns="http://www.w3.org/2000/svg"><path d="m512 175.682h-512v30h97.443v56.431h317.114v-56.431h97.443z"/><path d="m97.443 292.113h317.114v211.357h-317.114z"/><path d="m100.606 129.743 14.394-14.394 14.394 14.394 21.212-21.213-14.393-14.394 14.393-14.393-21.212-21.213-14.394 14.394-14.394-14.394-21.212 21.213 14.393 14.393-14.393 14.394z"/><path d="m241.606 79.743 14.394-14.394 14.394 14.394 21.212-21.213-14.393-14.394 14.393-14.393-21.212-21.213-14.394 14.394-14.394-14.394-21.212 21.213 14.393 14.393-14.393 14.394z"/><path d="m382.606 129.743 14.394-14.394 14.394 14.394 21.212-21.213-14.393-14.394 14.393-14.393-21.212-21.213-14.394 14.394-14.394-14.394-21.212 21.213 14.393 14.393-14.393 14.394z"/></svg>