<?xml version="1.0" encoding="UTF-8" standalone="no"?>
<!-- Created with Inkscape (http://www.inkscape.org/) -->

<svg
   xmlns:dc="http://purl.org/dc/elements/1.1/"
   xmlns:cc="http://creativecommons.org/ns#"
   xmlns:rdf="http://www.w3.org/1999/02/22-rdf-syntax-ns#"
   xmlns:svg="http://www.w3.org/2000/svg"
   xmlns="http://www.w3.org/2000/svg"
   xmlns:sodipodi="http://sodipodi.sourceforge.net/DTD/sodipodi-0.dtd"
   xmlns:inkscape="http://www.inkscape.org/namespaces/inkscape"
   width="42.036434mm"
   height="40.635765mm"
   viewBox="0 0 42.036434 40.635765"
   version="1.1"
   id="svg6228"
   inkscape:version="0.92.4 (f8dce91, 2019-08-02)"
   sodipodi:docname="unicef-hat.svg">
  <defs
     id="defs6222" />
  <sodipodi:namedview
     id="base"
     pagecolor="#ffffff"
     bordercolor="#666666"
     borderopacity="1.0"
     inkscape:pageopacity="0.0"
     inkscape:pageshadow="2"
     inkscape:zoom="1.979899"
     inkscape:cx="-77.371192"
     inkscape:cy="-1.7628822"
     inkscape:document-units="mm"
     inkscape:current-layer="layer1"
     showgrid="false"
     inkscape:window-width="1366"
     inkscape:window-height="713"
     inkscape:window-x="0"
     inkscape:window-y="27"
     inkscape:window-maximized="1" />
  <metadata
     id="metadata6225">
    <rdf:RDF>
      <cc:Work
         rdf:about="">
        <dc:format>image/svg+xml</dc:format>
        <dc:type
           rdf:resource="http://purl.org/dc/dcmitype/StillImage" />
        <dc:title></dc:title>
      </cc:Work>
    </rdf:RDF>
  </metadata>
  <g
     inkscape:label="Layer 1"
     inkscape:groupmode="layer"
     id="layer1"
     transform="translate(-211.81512,-122.46783)">
    <g
       style="clip-rule:evenodd;fill:#ff00ff;fill-rule:evenodd"
       transform="matrix(0.08210241,0,0,0.08210241,211.81512,121.7675)"
       id="g4581">
      <path
         style="fill:#ff00ff"
         inkscape:connector-curvature="0"
         d="M 512,175.682 H 0 v 30 h 97.443 v 56.431 H 414.557 V 205.682 H 512 Z"
         id="path4559" />
      <path
         style="fill:#ff00ff"
         inkscape:connector-curvature="0"
         d="M 97.443,292.113 H 414.557 V 503.47 H 97.443 Z"
         id="path4561" />
      <path
         style="fill:#ff00ff"
         inkscape:connector-curvature="0"
         d="M 100.606,129.743 115,115.349 129.394,129.743 150.606,108.53 136.213,94.136 150.606,79.743 129.394,58.53 115,72.924 100.606,58.53 79.394,79.743 93.787,94.136 79.394,108.53 Z"
         id="path4563" />
      <path
         style="fill:#ff00ff"
         inkscape:connector-curvature="0"
         d="M 241.606,79.743 256,65.349 270.394,79.743 291.606,58.53 277.213,44.136 291.606,29.743 270.394,8.53 256,22.924 241.606,8.53 220.394,29.743 234.787,44.136 220.394,58.53 Z"
         id="path4565" />
      <path
         style="fill:#ff00ff"
         inkscape:connector-curvature="0"
         d="M 382.606,129.743 397,115.349 411.394,129.743 432.606,108.53 418.213,94.136 432.606,79.743 411.394,58.53 397,72.924 382.606,58.53 361.394,79.743 375.787,94.136 361.394,108.53 Z"
         id="path4567" />
    </g>
    <path
       style="clip-rule:evenodd;fill-rule:evenodd;stroke-width:0.14494003"
       inkscape:connector-curvature="0"
       d="m 220.34092,159.71826 1.14969,-0.60549 0.87497,1.66138 c 0.18681,0.35472 0.47837,0.48686 0.84963,0.29133 0.33792,-0.17797 0.38153,-0.56918 0.21572,-0.88402 l -0.86193,-1.63662 1.12148,-0.59064 1.00147,1.90158 c 0.20761,0.39421 0.23357,0.87771 0.0262,1.2792 -0.21169,0.40552 -0.60947,0.68693 -1.00535,0.89542 -0.86628,0.45623 -1.8468,0.58325 -2.37023,-0.41063 l -1.00147,-1.90157 z m 5.31075,1.17257 -1.63661,-3.10757 1.13135,-0.59583 0.19107,0.3628 c 0.13117,-0.45421 0.36592,-0.79571 0.79335,-1.02082 0.6775,-0.35681 1.3753,-0.22501 1.74346,0.47404 l 1.1202,2.12702 -1.13301,0.59671 -0.85411,-1.62175 c -0.19005,-0.36087 -0.46242,-0.60058 -0.87651,-0.3825 -0.41089,0.2164 -0.36504,0.64093 -0.17573,1.00039 l 0.8279,1.57199 -1.13123,0.59577 z m 3.69234,-1.9446 -1.63661,-3.10756 1.14956,-0.60542 1.63662,3.10756 z m 3.37144,-3.1362 0.49905,0.94758 c -0.18326,0.28686 -0.46073,0.5031 -0.76056,0.66101 -0.89615,0.47196 -2.00514,0.14604 -2.47973,-0.75512 -0.49203,-0.93424 -0.16347,-2.07835 0.78064,-2.57558 0.2933,-0.15446 0.60729,-0.23727 0.93663,-0.2225 l 0.49553,0.94092 c -0.2322,-0.0111 -0.475,-0.002 -0.68532,0.10898 -0.40409,0.21282 -0.54544,0.66387 -0.33249,1.06821 0.20235,0.38422 0.63496,0.53069 1.02584,0.32483 0.21865,-0.11515 0.37896,-0.30098 0.52041,-0.49833 z m 1.19194,-0.89853 c 0.1727,0.32792 0.4539,0.51629 0.8217,0.32259 0.22699,-0.11954 0.32702,-0.29508 0.32596,-0.54188 l 1.07005,-0.56355 c 0.0658,0.38191 0.0778,0.74615 -0.11062,1.09912 -0.19327,0.36864 -0.52025,0.63176 -0.88292,0.82276 -0.55978,0.29481 -1.23642,0.336 -1.77667,-0.0229 -0.29402,-0.19653 -0.55768,-0.47228 -0.72335,-0.78686 -0.24085,-0.45731 -0.34568,-1.06226 -0.16928,-1.55502 0.16353,-0.45651 0.5506,-0.81893 0.97456,-1.04221 1.03517,-0.54518 1.91066,-0.16836 2.42963,0.81705 0.0577,0.10952 0.10208,0.22554 0.14475,0.34296 z m 3.01163,0.0453 -1.58163,-3.00317 c -0.24254,-0.46052 -0.49085,-0.99204 -0.32663,-1.52065 0.13561,-0.43738 0.54019,-0.75005 0.92941,-0.95503 l 0.29482,-0.15528 0.43009,0.81665 -0.17735,0.0934 c -0.42231,0.22241 -0.32842,0.50518 -0.13472,0.87298 l 0.0959,0.1821 0.60286,-0.3175 0.44846,0.85152 -0.60286,0.31751 1.1664,2.21474 -1.14469,0.60286 z m 5.27396,-2.111 -0.1524,-0.0446 c 0.0639,-0.30457 0.2381,-0.58865 0.42619,-0.834 -0.16973,0.0155 -0.33907,0.0433 -0.49305,0.1201 l -0.0155,0.0673 c -0.0573,0.26917 -0.22473,0.42928 -0.46493,0.55578 -0.17056,0.0898 -0.37638,0.1771 -0.56751,0.20796 l -0.20342,0.0352 -0.0873,-0.009 -0.004,-0.008 c -0.027,-0.0513 0.18387,-0.20921 0.21678,-0.23473 l 0.24058,-0.19452 a 3.7680061,3.7680061 0 0 1 0.62903,-0.42023 c 0.27354,-0.14406 0.5724,-0.23135 0.87703,-0.27564 0.22208,-0.229 0.47144,-0.43454 0.75447,-0.5836 0.30483,-0.16054 0.62566,-0.27856 0.95901,-0.35698 0.0359,-0.008 0.27305,-0.0843 0.30351,-0.0265 0.0541,0.10272 -0.57008,0.52875 -0.65947,0.57583 -0.21211,0.11171 -0.53621,0.19148 -0.73801,0.0208 -0.015,0.008 -0.0325,0.0147 -0.0491,0.0235 -0.13927,0.0734 -0.26948,0.20744 -0.36912,0.32774 0.28859,-0.0147 0.59048,0.008 0.86623,0.098 l 0.054,0.0183 -0.048,0.14585 -0.0767,-0.0169 -0.14391,-0.0362 c -0.11775,-0.031 -0.6695,-0.10232 -0.77092,-0.0576 -0.0912,0.0397 -0.30476,0.43783 -0.35027,0.53585 -0.0536,0.11945 -0.0942,0.24258 -0.13289,0.36665 z m -2.03877,-1.17132 0.15447,0.0479 c 0.18208,0.0565 0.94984,0.33324 1.03622,0.49726 0.0192,0.0366 -0.0463,0.0688 -0.0711,0.0818 -0.22519,0.1186 -0.51463,0.0592 -0.72089,-0.0711 a 1.3018513,1.3018513 0 0 1 -0.46109,-0.49759 c -0.009,-0.0165 -0.028,-0.0531 -0.005,-0.0654 0.0198,-0.0103 0.0495,0.002 0.067,0.007 z m -0.68888,0.97006 c -0.007,-0.0216 0.0126,-0.0405 0.0291,-0.0492 0.16082,-0.0847 1.45038,-0.2557 1.51225,-0.13824 0.0454,0.0862 -0.25172,0.22562 -0.29302,0.24737 -0.23699,0.12481 -0.51143,0.13404 -0.77184,0.089 -0.0538,-0.01 -0.45244,-0.0874 -0.4765,-0.14892 z m 0.17301,-0.82516 c -0.028,-0.0531 -0.2339,-0.52437 -0.16927,-0.5584 0.0646,-0.034 0.4548,0.41408 0.50121,0.46582 0.1587,0.18097 0.29836,0.36559 0.41088,0.57924 0.01,0.0183 0.0245,0.0549 -2.6e-4,0.068 -0.0828,0.0436 -0.3722,-0.14062 -0.43603,-0.1853 -0.13344,-0.0926 -0.23145,-0.22703 -0.30642,-0.36938 z m -1.00865,0.14609 c -0.006,-0.0116 -0.0108,-0.0282 0.003,-0.0353 0.15736,-0.0829 1.39351,0.27551 1.48071,0.44107 0.0104,0.0197 0.002,0.0326 -0.0158,0.0422 -0.23866,0.12569 -0.67204,0.026 -0.90586,-0.0647 -0.13089,-0.0516 -0.49187,-0.2509 -0.56164,-0.38337 z m 0.89509,-0.23666 0.0507,0.21229 c 0.005,0.021 0.0192,0.0765 -0.006,0.0897 -0.0944,0.0497 -0.36416,-0.34994 -0.40685,-0.43099 -0.0768,-0.14581 -0.11539,-0.31583 -0.13301,-0.47806 -0.004,-0.0441 -0.0441,-0.33633 0.0123,-0.36605 0.0546,-0.0288 0.10915,0.0906 0.1257,0.12202 0.14136,0.26841 0.28637,0.5562 0.35697,0.85106 z m -1.16316,-0.52149 0.26518,0.15422 c 0.16301,0.0961 0.58343,0.38058 0.67407,0.55268 0.007,0.0133 0.0126,0.036 -0.004,0.0447 -0.0381,0.0201 -0.0859,0.0136 -0.1272,0.003 l -0.18517,-0.0462 c -0.33163,-0.0835 -0.68544,-0.42187 -0.84341,-0.72182 -0.01,-0.0182 -0.0214,-0.0565 0.002,-0.0688 0.0579,-0.0303 0.17297,0.055 0.21872,0.0819 z m 0.41957,-0.95108 c 0.0115,-0.006 0.0186,0.003 0.0238,0.0129 0.0776,0.14734 0.27407,1.17172 0.1566,1.23359 -0.0563,0.0297 -0.13491,-0.13175 -0.15247,-0.16509 -0.13434,-0.25508 -0.1551,-0.52344 -0.11011,-0.80317 0.008,-0.042 0.0341,-0.25286 0.0822,-0.27819 z m -0.79149,0.39357 c -0.0253,-0.0481 -0.18179,-0.39308 -0.1301,-0.4203 0.0513,-0.027 0.28885,0.24365 0.31992,0.27807 0.19026,0.20449 0.37098,0.43939 0.5018,0.6878 0.0139,0.0264 0.0704,0.11722 0.024,0.14167 -0.0549,0.0289 -0.27709,-0.14385 -0.3215,-0.18402 -0.15962,-0.13791 -0.2955,-0.31599 -0.39411,-0.50322 z m 0.63952,0.0336 -0.0286,0.10615 c -0.006,0.0202 -0.0147,0.0564 -0.0362,0.0677 -0.0215,0.0113 -0.0355,-0.0152 -0.0434,-0.0301 -0.11084,-0.21044 -0.11587,-0.44893 -0.0688,-0.67684 0.019,-0.0926 0.10559,-0.43434 0.19177,-0.47973 0.0118,-0.006 0.0219,-0.003 0.0271,0.007 0.0906,0.17211 0.0109,0.80449 -0.0418,1.00587 z m -0.79703,-1.22443 c 0.0696,-0.0324 0.30866,0.41718 0.33135,0.46027 0.0305,0.058 0.29515,0.6528 0.21551,0.69474 -0.0909,0.0479 -0.35909,-0.40126 -0.39137,-0.46256 -0.0715,-0.13581 -0.11894,-0.27809 -0.14565,-0.42898 -0.006,-0.035 -0.0596,-0.24135 -0.01,-0.26347 z m 0.61081,-0.30677 0.0354,-0.0652 c 0.004,-0.004 0.006,-0.0119 0.0115,-0.0146 0.0124,-0.005 0.0252,0.008 0.0305,0.0178 0.061,0.11593 0.0153,0.52302 -0.004,0.64732 -0.0119,0.0698 -0.0738,0.39011 -0.14502,0.42759 -0.0165,0.009 -0.0362,4e-5 -0.0441,-0.0149 -0.1369,-0.25994 -0.0184,-0.75402 0.11555,-0.99802 z m -0.17931,-0.36473 0.0234,0.16542 c 0.0333,0.22375 0.0188,0.48942 -0.0444,0.70678 l -0.0204,0.0701 c -0.004,0.0194 -0.0109,0.0437 -0.029,0.0533 -0.0283,0.0149 -0.0525,-0.0189 -0.0639,-0.0404 -0.10117,-0.19211 -0.0906,-0.4411 -0.0446,-0.64733 0.0136,-0.0665 0.0715,-0.34234 0.13612,-0.37638 0.0115,-0.006 0.0229,0.0112 0.0273,0.0195 0.008,0.015 0.0125,0.0316 0.0154,0.0491 z m 5.46937,2.22523 c -0.025,0.0132 -0.0551,0.0163 -0.0699,-0.0118 -0.0681,-0.12927 0.18071,-1.32033 0.27356,-1.36922 0.0197,-0.0104 0.0363,0.0168 0.0433,0.0299 0.22186,0.42095 0.22669,1.10166 -0.24691,1.35108 z m 0.34763,-0.26777 0.10828,-0.15646 c 0.13479,-0.19352 0.643,-0.79961 0.85345,-0.91045 0.0115,-0.006 0.0357,-0.0124 0.0435,0.002 0.0384,0.0728 -0.17886,0.53224 -0.21591,0.59844 -0.11776,0.21436 -0.28625,0.39614 -0.50349,0.51055 -0.0428,0.0226 -0.28221,0.15062 -0.32403,0.0712 -0.0195,-0.0366 0.0171,-0.0876 0.0382,-0.11563 z m 0.30768,-0.58501 -0.0333,0.0978 c -0.005,0.0151 -0.0108,0.0355 -0.0251,0.0448 -0.0256,0.0159 -0.0503,-0.0433 -0.0573,-0.0565 l -0.013,-0.0248 c -0.15183,-0.28828 -0.21677,-0.62839 -0.27037,-0.94728 -0.007,-0.0328 -0.0684,-0.35106 -0.0203,-0.37639 0.0315,-0.0166 0.0834,0.0617 0.0979,0.0814 l 0.11622,0.15257 c 0.0432,0.0578 0.0805,0.12045 0.11451,0.18508 0.13704,0.26021 0.18264,0.55955 0.0907,0.84319 z m 0.56277,-1.51089 0.0349,-0.0459 c 0.004,-0.005 0.008,-0.0129 0.0162,-0.0172 0.01,-0.005 0.0244,0.002 0.0297,0.0119 a 0.07247001,0.07247001 0 0 1 0.006,0.0283 l 0.01,0.14709 c 0.0188,0.29693 -0.0513,0.66622 -0.20412,0.92657 -0.054,0.0899 -0.21332,0.33431 -0.30771,0.38402 -0.0181,0.01 -0.035,0.006 -0.0445,-0.0124 -0.0515,-0.0977 0.10253,-0.57672 0.13647,-0.68551 0.0649,-0.2139 0.18845,-0.55416 0.32289,-0.73684 z m -1.09392,-0.20494 -0.0519,-0.11437 c -0.005,-0.0142 -0.0281,-0.0699 -0.004,-0.0802 0.0192,-0.008 0.0463,0.0115 0.0617,0.0204 l 0.1359,0.0891 c 0.17576,0.11695 0.3242,0.29055 0.42274,0.47765 0.0306,0.0581 0.20425,0.54834 0.12487,0.59014 -0.098,0.0516 -0.53583,-0.67184 -0.56554,-0.72827 -0.0438,-0.0828 -0.0849,-0.16891 -0.12356,-0.25452 z m 0.58727,0.0187 0.026,0.0817 c 0.005,0.0164 0.0152,0.0447 -0.005,0.0551 -0.0912,0.048 -0.67715,-0.52992 -0.75593,-0.61948 -0.004,-0.004 -0.20198,-0.20684 -0.14568,-0.23649 0.0862,-0.0454 0.44441,0.18908 0.51768,0.24796 0.12529,0.097 0.23811,0.21107 0.31321,0.35367 0.0201,0.0379 0.037,0.0777 0.0493,0.11755 z m -0.24535,-1.38997 0.0876,0.14208 c 0.0172,0.0249 0.0303,0.0497 0.0433,0.0745 0.0855,0.16236 0.15008,0.36522 0.17996,0.54638 0.008,0.0593 0.0326,0.43149 -0.0402,0.46986 -0.0283,0.0149 -0.0586,-0.0347 -0.0682,-0.053 -0.14574,-0.27675 -0.21566,-0.57001 -0.2738,-0.87356 -0.007,-0.0368 -0.0826,-0.38175 -0.0395,-0.40444 0.0366,-0.0191 0.098,0.0775 0.11086,0.0982 z m 0.4992,1.98426 -0.0542,0.0859 a 0.06478819,0.06478819 0 0 1 -0.023,0.0246 c -0.0115,0.006 -0.0229,-0.0111 -0.0272,-0.0193 -0.0811,-0.15402 -0.0655,-1.38968 0.0488,-1.44986 0.0118,-0.006 0.0222,0.0137 0.0267,0.022 0.0977,0.18557 0.14669,0.4073 0.16963,0.61539 0.0247,0.21946 -0.0216,0.53378 -0.14071,0.72132 z m -0.55982,-1.25614 0.0297,0.0563 c 0.008,0.0149 0.0192,0.0364 7.9e-4,0.0461 -0.0265,0.014 -0.0664,-0.009 -0.0899,-0.0183 l -0.18095,-0.0739 c -0.15114,-0.0621 -0.65748,-0.32864 -0.73684,-0.47932 -0.005,-0.01 -0.007,-0.0258 0.004,-0.0319 0.0233,-0.0123 0.055,-0.008 0.0785,-0.003 l 0.15658,0.0276 c 0.26543,0.0465 0.61167,0.22581 0.73781,0.47684 z m -1.27767,-0.85056 -0.0547,-0.0559 c -0.009,-0.01 -0.0213,-0.0206 -0.0274,-0.0321 -0.004,-0.008 -5.3e-4,-0.0168 0.008,-0.0211 0.10952,-0.0577 0.48356,0.0902 0.59353,0.14658 0.12286,0.0644 0.27644,0.1591 0.3427,0.28491 0.008,0.0149 0.039,0.0663 0.0143,0.0793 -0.14241,0.0752 -0.76917,-0.29096 -0.87615,-0.40171 z m -0.15719,-0.55198 0.17178,0.045 c 0.22818,0.0597 0.52503,0.20592 0.64106,0.42624 0.0113,0.0216 0.0583,0.0941 0.0267,0.11075 -0.12568,0.0662 -0.6207,-0.29084 -0.71198,-0.36775 -0.004,-0.002 -0.22774,-0.1954 -0.17701,-0.21573 0.0147,-0.008 0.0342,-0.003 0.0494,0.001 z m 1.39164,1.11209 0.004,0.0761 c 2.7e-4,0.0126 0.001,0.0268 -0.012,0.0338 -0.0646,0.034 -0.35831,-0.43557 -0.38965,-0.49508 -0.028,-0.0531 -0.2681,-0.60579 -0.2236,-0.62922 0.0215,-0.0114 0.0756,0.0511 0.0884,0.0634 l 0.11874,0.10881 c 0.1135,0.10322 0.20898,0.2559 0.28057,0.39184 0.0726,0.13753 0.12196,0.29566 0.13333,0.45037 z"
       id="path5393" />
    <path
       style="clip-rule:evenodd;fill-rule:evenodd;stroke-width:0.14494003"
       inkscape:connector-curvature="0"
       d="m 239.0943,150.44486 c -0.34202,-0.64942 -0.41981,-1.4357 -0.15709,-2.12627 0.2132,-0.56719 0.63212,-1.06941 1.17061,-1.35301 1.22561,-0.64548 2.73706,-0.14229 3.3774,1.07357 0.64899,1.23228 0.18564,2.80318 -1.0519,3.45494 -1.20432,0.63426 -2.70915,0.14676 -3.33902,-1.04923 z m -11.6687,3.46869 c 0.36113,-0.19019 0.81896,-0.0441 1.00827,0.3154 0.18931,0.35947 0.0542,0.82199 -0.30863,1.01306 -0.361,0.19012 -0.81976,0.0425 -1.00995,-0.31862 -0.18932,-0.35946 -0.0508,-0.81965 0.31031,-1.00984 z"
       id="path5395" />
    <path
       style="clip-rule:evenodd;fill:#ff00ff;fill-rule:evenodd;stroke-width:0.14494003"
       inkscape:connector-curvature="0"
       d="m 233.5732,154.23683 1.04197,-0.54876 c -0.17614,-0.29432 -0.44541,-0.4762 -0.78345,-0.29817 -0.35946,0.18931 -0.38392,0.49624 -0.25852,0.84693 z m 7.28998,-7.30294 c 0.0173,-0.0514 0.0347,-0.10298 0.0538,-0.15531 l -0.0774,0.0175 c -0.15166,0.0334 -0.29578,0.0732 -0.44022,0.13241 l 0.051,6.8e-4 0.10062,-0.006 c 0.10344,-0.008 0.20917,0.004 0.31221,0.0112 z m -0.17791,0.96763 c 0.14966,-0.0937 0.2891,-0.19041 0.41285,-0.31686 -0.11069,-0.0898 -0.22368,-0.17215 -0.35156,-0.23798 -0.0783,0.0688 -0.15817,0.12983 -0.24901,0.18192 z m 0.27558,0.52765 c 0.16663,-0.0901 0.30978,-0.21181 0.47362,-0.30661 0.0411,-0.0259 0.12375,-0.0779 0.0924,-0.13745 -0.006,-0.0116 -0.0146,-0.0199 -0.0213,-0.0289 l -0.073,-0.0821 c -0.0713,-0.083 -0.15561,-0.15083 -0.23989,-0.21849 -0.13789,0.13601 -0.29477,0.24403 -0.45831,0.34719 z m 0.21622,-0.91574 a 1.6072399,1.6072399 0 0 0 0.25241,-0.34032 c -0.16029,-0.0596 -0.32468,-0.11043 -0.49582,-0.12186 a 0.92109385,0.92109385 0 0 1 -0.12208,0.20615 l 0.067,0.043 0.12889,0.0802 c 0.0603,0.038 0.11481,0.0855 0.16956,0.13283 z m 0.31668,-0.43134 a 1.5073763,1.5073763 0 0 0 0.12686,-0.29319 c -0.1912,-0.0495 -0.40031,-0.041 -0.59649,-0.0159 -0.0129,0.0597 -0.0345,0.11548 -0.0534,0.17196 0.17787,0.0164 0.3584,0.0737 0.52306,0.13717 z m 0.10563,0.0438 c 0.18143,0.0717 0.35853,0.16256 0.51902,0.27477 0.0787,-0.124 0.15207,-0.25373 0.20447,-0.39124 -0.18039,-0.0934 -0.38312,-0.17287 -0.58538,-0.19953 -0.0227,0.0691 -0.0517,0.13517 -0.0836,0.20275 z"
       id="path5397" />
    <path
       style="clip-rule:evenodd;fill:#ff00ff;fill-rule:evenodd;stroke-width:0.14494003"
       inkscape:connector-curvature="0"
       d="m 239.45662,147.58571 c -0.65147,0.75148 -0.78371,1.91097 -0.32141,2.78879 0.62292,1.18278 2.08368,1.66187 3.27287,1.03558 1.24741,-0.65696 1.62801,-2.18002 0.98685,-3.39742 -0.2172,-0.41243 -0.56894,-0.72664 -0.96753,-0.95689 l -0.0546,0.10916 c -0.0523,0.1016 -0.10806,0.20074 -0.17212,0.29591 0.0384,0.0284 0.0808,0.0611 0.10354,0.1042 0.009,0.0165 0.0229,0.0556 -5.3e-4,0.0679 -0.0446,0.0235 -0.13651,-0.0508 -0.16894,-0.076 -0.051,0.0522 -0.0995,0.12023 -0.16594,0.15522 -0.0147,0.008 -0.0508,0.0118 -0.0612,-0.008 -0.028,-0.0531 0.10321,-0.18132 0.13338,-0.22047 -0.15641,-0.11223 -0.31412,-0.20265 -0.49703,-0.26505 -0.0828,0.1283 -0.17155,0.24908 -0.27464,0.36251 0.0603,0.0508 0.12004,0.0998 0.1765,0.15473 l 0.10755,0.10405 c 0.0231,0.0239 0.0489,0.0483 0.0646,0.0782 0.0637,0.12094 -0.0169,0.22054 -0.1121,0.28543 l -0.22453,0.15625 c -0.0866,0.0604 -0.1784,0.11508 -0.2719,0.16647 l 0.0791,0.14654 c 0.0165,0.0314 0.0445,0.0845 -0.002,0.10889 -0.0431,0.0227 -0.0738,-0.008 -0.0955,-0.0449 l -0.0774,-0.13912 c -0.0446,0.0235 -0.17626,0.0992 -0.21287,0.0297 -0.0183,-0.0348 0.0145,-0.0648 0.0429,-0.0797 0.0263,-0.0138 0.0537,-0.0263 0.082,-0.0412 l 0.0413,-0.0217 -0.22392,-0.41741 -0.14278,0.0667 a 0.70426358,0.70426358 0 0 0 -0.13487,-0.0834 l 0.22656,-0.10014 -0.19546,-0.37113 c -0.0938,0.043 -0.18771,0.0694 -0.28886,0.0907 -0.008,0.0529 -0.002,0.26968 -0.0447,0.29237 -0.0215,0.0113 -0.047,-0.005 -0.0574,-0.0248 -0.0375,-0.0712 -0.0233,-0.18448 -0.0149,-0.26097 a 0.9548649,0.9548649 0 0 1 -0.24961,-0.0124 c -0.0389,0.067 -0.15747,0.3601 -0.18402,0.37408 -0.0215,0.0113 -0.0461,-0.0117 -0.0557,-0.0299 -0.0375,-0.0712 0.0968,-0.28996 0.13223,-0.35516 -0.0603,-0.019 -0.11955,-0.0429 -0.17713,-0.0676 z m 0.46664,-0.39172 -0.0133,0.007 c -0.13901,0.0732 -0.24664,0.17429 -0.35212,0.29127 0.0449,0.0208 0.0887,0.0359 0.13567,0.0449 0.0661,-0.1236 0.1444,-0.23249 0.22979,-0.34315 z"
       id="path5399" />
    <path
       style="clip-rule:evenodd;fill:#ff00ff;fill-rule:evenodd;stroke-width:0.14494003"
       inkscape:connector-curvature="0"
       d="m 240.07388,147.18232 c -0.11653,0.11216 -0.20198,0.23546 -0.28433,0.37613 0.0729,0.006 0.14497,0.006 0.21672,0.002 l 0.0185,-0.12603 0.0303,-0.14716 z m 0.046,0.36514 c 0.0777,-0.0136 0.15254,-0.0317 0.22913,-0.0551 l -0.14854,-0.29853 c -0.021,7.9e-4 -0.0763,0.32175 -0.0806,0.35367 z m 0.18509,-0.40003 0.1482,0.28577 a 1.8759588,1.8759588 0 0 0 0.18385,-0.14547 c -0.10759,-0.0597 -0.21245,-0.11008 -0.33206,-0.1403 z m 0.41624,0.0432 a 1.5783969,1.5783969 0 0 0 0.0888,-0.15262 c -0.14109,-0.0187 -0.26657,-0.0203 -0.40772,9.6e-4 0.0853,0.0376 0.16901,0.0761 0.25015,0.1179 z"
       id="path5401" />
    <path
       style="clip-rule:evenodd;fill-rule:evenodd;stroke-width:0.14494003"
       inkscape:connector-curvature="0"
       d="m 239.23122,149.92194 c -0.0194,0.0313 -0.0389,0.0627 -0.0574,0.0957 -0.13281,-0.30878 -0.24619,-0.87336 -0.0996,-1.18532 0.0105,0.06 0.0251,0.11584 0.048,0.17144 -0.0336,0.30977 0.0148,0.62287 0.1089,0.91815 z m 4.17175,0.0543 -0.0571,-0.0525 c 0.0805,-0.23276 0.11698,-0.48489 0.0966,-0.73199 l 0.0676,-0.16488 c 0.0386,0.31811 0.0416,0.65725 -0.1071,0.94935 z"
       id="path5403" />
    <path
       style="clip-rule:evenodd;fill-rule:evenodd;stroke-width:0.14494003"
       inkscape:connector-curvature="0"
       d="m 243.37624,150.09816 c -0.21599,0.49036 -0.54437,0.91099 -1.02298,1.16305 -1.16944,0.61589 -2.49951,0.13579 -3.10325,-1.01057 -0.15878,-0.30149 0.36062,-0.57717 0.21318,-0.85712 -0.075,-0.14248 -0.20286,-0.24864 -0.27701,-0.38945 -0.16838,-0.31971 -0.0104,-0.72663 0.29782,-0.88893 0.31804,-0.16749 0.90845,-0.12296 1.09344,0.22829 0.11076,0.21032 -0.002,0.39429 0.0639,0.51855 0.0209,0.0398 0.0484,0.0761 0.0694,0.11583 0.0227,0.0431 -0.0358,0.0844 -0.0164,0.13344 l 0.01,0.0266 -0.006,0.058 -0.001,0.0578 c -0.002,0.0243 -0.0427,0.11145 -0.052,0.14601 -0.0163,0.0615 -0.0668,0.0987 -0.12127,0.12742 -0.0348,0.0183 -0.072,0.0359 -0.10966,0.045 l -0.10396,0.0231 a 0.2353826,0.2353826 0 0 0 -0.0489,0.0194 c -0.0499,0.0263 -0.0894,0.0915 -0.0606,0.14625 0.0471,0.0894 0.14297,0.15109 0.18758,0.2439 l 0.12157,0.24296 0.0119,0.0148 0.0683,0.0654 0.0556,0.0577 c 0.0884,0.0951 0.25801,-0.005 0.39558,-0.0203 l 0.11697,-0.0149 c 0.0158,-0.002 0.0375,-0.001 0.0526,-0.009 0.0596,-0.0314 0.0699,-0.1808 0.16929,-0.23315 0.0381,-0.02 0.0702,0.0372 0.10175,0.0165 l 0.0901,-0.0579 c 0.0179,-0.0139 0.0747,0.0579 0.0835,0.0745 0.0732,0.13901 0.0716,0.36856 -0.0842,0.45062 -0.0646,0.034 -0.14128,0.009 -0.20079,0.0402 -0.0247,0.013 -0.18189,0.16132 -0.22854,0.19654 -0.0668,0.0499 -0.13366,0.0999 -0.2065,0.13823 -0.0563,0.0297 -0.13828,0.0752 -0.20215,0.0706 l -0.0511,-0.005 c -0.008,2.4e-4 -0.0177,-0.001 -0.0258,0.003 -0.0596,0.0314 -0.01,0.19789 0.0108,0.23739 0.096,0.18236 0.36376,0.12802 0.50623,0.053 0.0909,-0.0479 0.17829,-0.11093 0.24368,-0.19206 l 0.19751,-0.24768 c 0.14256,-0.17877 0.43908,-0.37934 0.47725,-0.43564 0.0333,-0.0491 0.047,-0.1114 0.0182,-0.16603 a 0.34060905,0.34060905 0 0 0 -0.0439,-0.0635 l -0.0711,-0.079 -0.0768,-0.10127 -0.0787,-0.11303 c -0.1866,-0.27407 -0.54056,-0.10666 -0.65491,-0.32378 -0.0471,-0.0894 0.0202,-0.19051 -0.021,-0.27678 -0.0165,-0.0357 -0.024,-0.0614 5.3e-4,-0.0955 l 0.0252,-0.0323 c 0.0349,-0.0459 -0.0654,-0.12427 -0.0172,-0.17722 l 0.0255,-0.0282 c 0.0581,-0.0624 -0.0842,-0.17567 0.01,-0.2423 l 0.0751,-0.0543 0.0873,-0.0713 c 0.10616,-0.0877 0.0368,-0.20351 0.14534,-0.33897 l 0.11318,-0.14217 0.0366,-0.0637 0.0286,-0.10174 c 0.0276,-0.0886 0.11914,-0.1517 0.19698,-0.1927 0.54503,-0.28704 1.16761,-0.0732 1.4485,0.46017 0.21896,0.41576 0.16091,1.1214 -0.29627,1.36218 -0.0297,0.0157 -0.0614,0.0279 -0.0912,0.0436 -0.0746,0.0393 -0.036,0.12479 -0.005,0.18301 0.10117,0.1921 0.40293,0.2024 0.40469,0.20574 0.009,0.0165 0.0142,0.0348 0.0229,0.0513 l 0.002,0.004 z"
       id="path5405" />
  </g>
</svg>
