<?xml version="1.0" encoding="UTF-8" standalone="no"?>
<!-- Created with Inkscape (http://www.inkscape.org/) -->

<svg
   xmlns:dc="http://purl.org/dc/elements/1.1/"
   xmlns:cc="http://creativecommons.org/ns#"
   xmlns:rdf="http://www.w3.org/1999/02/22-rdf-syntax-ns#"
   xmlns:svg="http://www.w3.org/2000/svg"
   xmlns="http://www.w3.org/2000/svg"
   xmlns:sodipodi="http://sodipodi.sourceforge.net/DTD/sodipodi-0.dtd"
   xmlns:inkscape="http://www.inkscape.org/namespaces/inkscape"
   width="42.036434mm"
   height="40.635765mm"
   viewBox="0 0 42.036434 40.635765"
   version="1.1"
   id="svg6228"
   inkscape:version="0.92.4 (f8dce91, 2019-08-02)"
   sodipodi:docname="unicef-hat.svg">
  <defs
     id="defs6222" />
  <sodipodi:namedview
     id="base"
     pagecolor="#ffffff"
     bordercolor="#666666"
     borderopacity="1.0"
     inkscape:pageopacity="0.0"
     inkscape:pageshadow="2"
     inkscape:zoom="1.979899"
     inkscape:cx="75.278213"
     inkscape:cy="43.551204"
     inkscape:document-units="mm"
     inkscape:current-layer="layer1"
     showgrid="false"
     inkscape:window-width="1366"
     inkscape:window-height="713"
     inkscape:window-x="0"
     inkscape:window-y="27"
     inkscape:window-maximized="1" />
  <metadata
     id="metadata6225">
    <rdf:RDF>
      <cc:Work
         rdf:about="">
        <dc:format>image/svg+xml</dc:format>
        <dc:type
           rdf:resource="http://purl.org/dc/dcmitype/StillImage" />
        <dc:title />
      </cc:Work>
    </rdf:RDF>
  </metadata>
  <g
     inkscape:label="Layer 1"
     inkscape:groupmode="layer"
     id="layer1"
     transform="translate(-211.81512,-122.46783)">
    <g
       style="clip-rule:evenodd;fill:#ff00ff;fill-rule:evenodd"
       transform="matrix(0.08210241,0,0,0.08210241,211.81512,121.7675)"
       id="g4581">
      <path
         style="fill:#ff00ff"
         inkscape:connector-curvature="0"
         d="M 512,175.682 H 0 v 30 h 97.443 v 56.431 H 414.557 V 205.682 H 512 Z"
         id="path4559" />
      <path
         style="fill:#ff00ff"
         inkscape:connector-curvature="0"
         d="M 97.443,292.113 H 414.557 V 503.47 H 97.443 Z"
         id="path4561" />
      <path
         style="fill:#ff00ff"
         inkscape:connector-curvature="0"
         d="M 100.606,129.743 115,115.349 129.394,129.743 150.606,108.53 136.213,94.136 150.606,79.743 129.394,58.53 115,72.924 100.606,58.53 79.394,79.743 93.787,94.136 79.394,108.53 Z"
         id="path4563" />
      <path
         style="fill:#ff00ff"
         inkscape:connector-curvature="0"
         d="M 241.606,79.743 256,65.349 270.394,79.743 291.606,58.53 277.213,44.136 291.606,29.743 270.394,8.53 256,22.924 241.606,8.53 220.394,29.743 234.787,44.136 220.394,58.53 Z"
         id="path4565" />
      <path
         style="fill:#ff00ff"
         inkscape:connector-curvature="0"
         d="M 382.606,129.743 397,115.349 411.394,129.743 432.606,108.53 418.213,94.136 432.606,79.743 411.394,58.53 397,72.924 382.606,58.53 361.394,79.743 375.787,94.136 361.394,108.53 Z"
         id="path4567" />
    </g>
    <path
       style="clip-rule:evenodd;fill-rule:evenodd;stroke-width:0.39346805"
       inkscape:connector-curvature="0"
       d="m 230.31776,162.88583 -0.30866,-0.30092 c 0.54093,-0.64895 1.32024,-1.10836 2.08352,-1.45722 -0.42669,-0.17891 -0.8681,-0.32781 -1.33508,-0.33966 l -0.1227,0.1417 c -0.48004,0.57245 -1.08531,0.74323 -1.82227,0.74078 -0.52328,-0.002 -1.1279,-0.0545 -1.62547,-0.22368 l -0.53255,-0.17456 -0.1979,-0.13275 5.9e-4,-0.0245 c 5.5e-4,-0.15745 0.70718,-0.26768 0.81857,-0.28687 l 0.82448,-0.16016 c 0.67237,-0.13736 1.35691,-0.20659 2.04319,-0.20686 0.83925,0.003 1.66696,0.17401 2.45376,0.45547 0.82399,-0.26631 1.68354,-0.44179 2.55191,-0.43891 0.93527,0.003 1.85477,0.1284 2.75388,0.36481 0.0964,0.0271 0.76202,0.1455 0.76147,0.3228 -0.001,0.31517 -2.03995,0.54215 -2.31422,0.54123 -0.6508,-0.002 -1.52946,-0.22342 -1.79605,-0.88956 -0.0461,8e-5 -0.0967,-0.005 -0.14768,-0.005 -0.42737,-0.001 -0.91021,0.15447 -1.30223,0.31596 0.71068,0.33212 1.4056,0.77084 1.95225,1.33765 l 0.10614,0.11265 -0.30073,0.2886 -0.16235,-0.13818 -0.29899,-0.27011 c -0.24297,-0.22423 -1.47504,-1.09755 -1.77515,-1.11943 -0.26929,-0.0217 -1.28806,0.66187 -1.52196,0.83895 -0.28057,0.21826 -0.53466,0.46174 -0.78536,0.70998 z m -3.39744,-5.40376 0.3094,0.31148 c 0.36466,0.36724 1.85328,2.00812 1.85161,2.51134 -5.5e-4,0.11212 -0.19845,0.10614 -0.2746,0.1056 -0.69091,-0.002 -1.30932,-0.51316 -1.63802,-1.08813 -0.31192,-0.54121 -0.47485,-1.1554 -0.47216,-1.78005 -5.7e-4,-0.051 4.6e-4,-0.16289 0.0714,-0.16316 0.0606,5.2e-4 0.11619,0.0678 0.15175,0.1021 z m -2.88659,1.44905 c 0.0109,-0.0608 0.0817,-0.0811 0.13248,-0.0809 0.49342,0.002 3.80315,1.23315 3.80199,1.59355 -8.7e-4,0.26441 -0.89078,0.22043 -1.01751,0.22017 -0.7271,-0.002 -1.3969,-0.32965 -1.96397,-0.76913 -0.11618,-0.0926 -0.97357,-0.78547 -0.95294,-0.96361 z m 1.4652,-1.75829 c 4.6e-4,-0.16288 0.10669,-1.55505 0.30494,-1.55438 0.19817,7.1e-4 0.56341,1.57179 0.60883,1.75495 0.15012,0.63591 0.25003,1.25639 0.24785,1.91188 6.8e-4,0.0568 -0.0109,0.16288 -0.0872,0.1626 -0.2541,-8.3e-4 -0.71342,-0.81096 -0.8096,-0.99933 -0.20198,-0.39189 -0.26604,-0.83897 -0.26442,-1.27575 z m -2.60445,-0.93366 c 3.8e-4,-0.0356 0.0109,-0.0814 0.0521,-0.0809 0.48284,0.001 2.99057,2.43446 2.98891,2.94243 -1.4e-4,0.0606 -0.0366,0.0806 -0.0915,0.0811 -0.73227,-0.002 -1.64449,-0.79313 -2.08967,-1.30824 -0.24813,-0.29034 -0.86002,-1.22771 -0.85868,-1.63416 z m 2.44746,0.57193 -0.14876,0.57356 c -0.0136,0.0568 -0.0513,0.20795 -0.12868,0.2074 -0.28963,-9.7e-4 -0.42772,-1.30261 -0.42692,-1.55128 10e-4,-0.44738 0.12542,-0.90416 0.28964,-1.3156 0.0464,-0.11076 0.32237,-0.86256 0.49545,-0.86202 0.1675,4.3e-4 0.14632,0.35617 0.14606,0.45256 -0.003,0.82354 -0.0217,1.69818 -0.22749,2.49506 z m -2.12515,-2.73103 0.43954,0.70733 c 0.26848,0.43794 0.91445,1.65521 0.91271,2.18324 -1.4e-4,0.0407 -0.0163,0.10235 -0.0665,0.10211 -0.117,-3e-4 -0.22315,-0.0768 -0.30882,-0.15474 l -0.38517,-0.34648 c -0.68888,-0.62237 -1.10651,-1.88405 -1.10346,-2.80436 -7.9e-4,-0.0565 0.0217,-0.16261 0.0923,-0.16233 0.17727,0.001 0.34475,0.35206 0.42019,0.4748 z m 2.21672,-1.74637 c 0.0353,2.7e-4 0.0407,0.0309 0.0407,0.0614 -0.001,0.45205 -0.8344,3.15835 -1.1948,3.15716 -0.17292,-4.3e-4 -0.15582,-0.48761 -0.15554,-0.58993 0.003,-0.78263 0.29441,-1.4525 0.75837,-2.06594 0.0727,-0.0906 0.40362,-0.56289 0.55122,-0.5624 z m -2.39878,-0.0638 c 5.6e-4,-0.1474 0.0647,-1.17391 0.22314,-1.17337 0.15745,5.5e-4 0.38245,0.95189 0.41312,1.07396 0.196,0.7325 0.33019,1.5258 0.32766,2.28795 -3e-4,0.0809 0.019,0.37066 -0.1227,0.37022 -0.16831,-5.9e-4 -0.48126,-0.69761 -0.53661,-0.85048 -0.20713,-0.53384 -0.3063,-1.13382 -0.3044,-1.70828 z m 1.49063,0.89463 -0.2036,0.21827 c -0.0402,0.0407 -0.10696,0.11645 -0.17293,0.11618 -0.066,-2.7e-4 -0.0657,-0.0817 -0.0657,-0.12731 0.002,-0.64567 0.29364,-1.22392 0.69661,-1.71048 0.16343,-0.1979 0.80608,-0.90701 1.07049,-0.90614 0.0358,6.3e-4 0.0562,0.0217 0.056,0.0514 -0.002,0.52801 -0.99792,1.94283 -1.38063,2.3586 z m -0.35245,-3.95045 c 0.20822,0.0108 0.20904,1.39321 0.20849,1.52542 -7e-4,0.17781 -0.12325,1.94094 -0.36763,1.94014 -0.27893,-8.7e-4 -0.35024,-1.41922 -0.34959,-1.60729 0.001,-0.41666 0.0686,-0.81822 0.19682,-1.21399 0.0301,-0.0915 0.16423,-0.65457 0.3114,-0.64446 z m 1.85506,0.042 0.16777,-0.1113 c 0.0136,-0.005 0.0296,-0.0217 0.0461,-0.019 0.0361,0.003 0.0502,0.0514 0.0504,0.0814 -0.001,0.35559 -0.62908,1.27353 -0.83357,1.54699 -0.11728,0.1523 -0.67355,0.84144 -0.89202,0.84066 -0.0511,5.7e-4 -0.0869,-0.0458 -0.0869,-0.0918 0.003,-0.79753 0.91569,-1.83137 1.54745,-2.24593 z m 0.0345,-1.10277 -0.15447,0.42643 c -0.20496,0.57888 -0.57793,1.19742 -1.00615,1.63815 l -0.13817,0.14225 c -0.0342,0.0415 -0.0817,0.091 -0.13737,0.091 -0.0869,-3e-4 -0.1018,-0.11212 -0.1018,-0.17836 0.002,-0.58941 0.34425,-1.17297 0.71706,-1.60892 0.11727,-0.14197 0.60723,-0.72982 0.80551,-0.72916 0.0353,2.4e-4 0.0407,0.056 0.0407,0.0814 8e-5,0.0461 -0.0109,0.0918 -0.0245,0.13736 z m 10.28158,12.29771 c -0.0768,-1.6e-4 -0.15284,-0.0309 -0.15256,-0.11727 0.001,-0.39665 2.11401,-2.93579 2.39886,-2.9348 0.0606,1.3e-4 0.0657,0.0866 0.0657,0.12676 -0.003,1.29177 -0.85882,2.93009 -2.31189,2.92525 z m 1.17438,-0.19953 0.45878,-0.23726 c 0.56955,-0.29244 2.55964,-1.09876 3.20532,-1.09664 0.0353,2.5e-4 0.10129,0.0163 0.1018,0.0603 -6e-4,0.22342 -1.10638,1.0485 -1.27947,1.16007 -0.55524,0.36409 -1.19064,0.58548 -1.85715,0.58326 -0.13139,-3e-4 -0.8684,0.002 -0.86756,-0.24161 -1.9e-4,-0.11266 0.15257,-0.1884 0.23889,-0.22858 z m 1.48241,-1.01103 -0.20441,0.1922 c -0.0312,0.0299 -0.0711,0.0714 -0.11728,0.0755 -0.0817,0.005 -0.0655,-0.16776 -0.0655,-0.20848 l 4.1e-4,-0.076 c 0.003,-0.88451 0.28012,-1.78267 0.55753,-2.6155 0.0245,-0.0877 0.28288,-0.92884 0.43045,-0.92832 0.0967,2.7e-4 0.12135,0.2541 0.13112,0.31979 l 0.0844,0.51376 c 0.0302,0.19356 0.0396,0.3913 0.0391,0.58955 -0.003,0.79836 -0.27435,1.57414 -0.85586,2.1372 z m 3.27267,-2.90639 0.14199,-0.0657 c 0.0163,-0.008 0.0356,-0.0217 0.0608,-0.0217 0.0304,7.4e-4 0.056,0.0358 0.0562,0.0663 -0.002,0.0271 -0.008,0.0521 -0.0217,0.0755 l -0.16315,0.3654 c -0.3329,0.7359 -0.97105,1.53215 -1.66889,1.96186 -0.24378,0.14686 -0.93706,0.53004 -1.22666,0.5291 -0.0562,9.2e-4 -0.0915,-0.0302 -0.091,-0.0863 9e-4,-0.29982 0.97997,-1.25232 1.19983,-1.46996 0.42789,-0.43028 1.15728,-1.08886 1.71217,-1.35574 z m -2.36208,-1.88388 0.0217,-0.34029 c 0.005,-0.0404 0.0217,-0.20334 0.0926,-0.19736 0.0562,0.005 0.0964,0.0865 0.12189,0.12759 l 0.21256,0.38663 c 0.27256,0.50414 0.40751,1.10936 0.4056,1.68341 -5.9e-4,0.17836 -0.20821,1.57477 -0.4518,1.57395 -0.30065,-0.001 -0.42958,-2.29297 -0.42898,-2.46611 3.8e-4,-0.25437 0.0109,-0.51308 0.0277,-0.76756 z m 1.38434,0.79241 -0.0415,0.22913 c -0.008,0.0456 -0.0217,0.1265 -0.082,0.12569 -0.27977,-0.001 -0.94908,-2.13259 -1.02395,-2.4476 -0.005,-0.0136 -0.22098,-0.75305 -0.0483,-0.75249 0.26441,8.7e-4 0.82488,1.01908 0.92563,1.25352 0.177,0.39205 0.30222,0.80919 0.30079,1.24669 -6e-5,0.11647 -0.0108,0.23346 -0.0315,0.34463 z m 1.18105,-3.64512 0.0294,0.45219 c 0.0109,0.0817 0.008,0.15771 0.008,0.23373 -0.002,0.49812 -0.10506,1.06674 -0.26414,1.53915 -0.0562,0.15229 -0.47112,1.0761 -0.69451,1.07543 -0.0869,-3.1e-4 -0.0964,-0.15773 -0.0961,-0.21393 0.003,-0.84909 0.20848,-1.64124 0.45547,-2.44311 0.0301,-0.0972 0.28789,-1.02048 0.42013,-1.02002 0.11211,7.9e-4 0.13627,0.31059 0.14089,0.37659 z m -1.3289,5.3932 -0.23944,0.13709 c -0.0245,0.019 -0.0556,0.0277 -0.0863,0.0296 -0.0353,-2.4e-4 -0.0407,-0.0557 -0.0407,-0.0809 0.002,-0.47252 1.61193,-3.41547 1.96259,-3.41427 0.0358,6.2e-4 0.0358,0.0611 0.0361,0.0866 -0.002,0.56933 -0.16668,1.16332 -0.37663,1.69147 -0.22017,0.55765 -0.73126,1.25237 -1.25558,1.55044 z m 0.25682,-3.72451 -4.7e-4,0.17265 c 2.2e-4,0.0458 -3e-4,0.11186 -0.0567,0.11158 -0.0814,-1.6e-4 -0.14768,-0.10614 -0.19221,-0.15827 l -0.33979,-0.40752 c -0.28337,-0.3413 -1.15815,-1.62494 -1.15662,-2.08726 7.2e-4,-0.0304 0.0163,-0.0709 0.0502,-0.0714 0.0714,1.6e-4 0.14197,0.0507 0.19193,0.0929 l 0.3403,0.26549 c 0.57726,0.44936 1.1792,1.32004 1.16212,2.08252 z m -1.98084,-3.66585 -0.0599,-0.20359 c -0.008,-0.0356 -0.0245,-0.0765 -0.0245,-0.11185 5.9e-4,-0.0245 0.019,-0.041 0.0461,-0.0404 0.33606,10e-4 1.04464,0.83183 1.23654,1.10699 0.21257,0.31081 0.46031,0.73337 0.45906,1.11938 1.9e-4,0.0458 0.008,0.20876 -0.0668,0.20849 -0.43717,-9.8e-4 -1.47389,-1.67676 -1.58942,-2.07848 z m 0.32574,-1.52359 0.35462,0.32658 c 0.47111,0.43359 0.99676,1.16206 0.99449,1.83804 -3.7e-4,0.0662 0.019,0.29984 -0.0768,0.29954 -0.3856,-10e-4 -1.11804,-1.48749 -1.23901,-1.78808 -0.008,-0.0109 -0.29735,-0.75841 -0.14985,-0.74259 0.0453,-4.9e-4 0.0857,0.0364 0.11728,0.0652 z m 1.92119,4.43799 -0.0874,0.18758 c -0.0163,0.0307 -0.0318,0.0655 -0.0719,0.0657 -0.19817,-7.1e-4 -0.3047,-1.5005 -0.30407,-1.68309 4.6e-4,-0.16288 0.12839,-1.79381 0.26494,-1.79332 0.066,2e-5 0.11619,0.2188 0.13113,0.2644 l 0.14632,0.41205 c 0.14062,0.39197 0.17537,0.87961 0.17401,1.29667 -9.7e-4,0.42218 -0.0839,0.86416 -0.25355,1.2496 z"
       id="path5393"
       sodipodi:nodetypes="ccccccccccccccccccccccccccccccccccccccccccccccccccccccccccccccccsccccccccccccccccccccccccccccccccscccccccccccccccccccccccccccccccccccccccccccccccccccccccccccccccccccccccccccccccccccccccccccccccccccccccccccccccccccccccccccccccccccccccccccccccccccc" />
    <path
       style="clip-rule:evenodd;fill-rule:evenodd;stroke-width:0.39346805"
       inkscape:connector-curvature="0"
       d="m 225.94414,153.18454 c 0.005,-1.9925 0.82098,-3.97683 2.32997,-5.29821 1.23321,-1.0886 2.87695,-1.75953 4.52911,-1.75408 3.76038,0.0136 6.74393,3.14294 6.73159,6.87339 -0.0136,3.78081 -3.12319,6.95763 -6.92015,6.94506 -3.69502,-0.0136 -6.68266,-3.09668 -6.67052,-6.76616 z"
       id="path5395"
       sodipodi:nodetypes="cccccc" />
    <path
       style="clip-rule:evenodd;fill:#ff00ff;fill-rule:evenodd;stroke-width:0.39346805"
       inkscape:connector-curvature="0"
       d="m 234.65473,147.01781 c 0.10696,-0.10129 0.21419,-0.20279 0.32671,-0.30391 l -0.20794,-0.0565 c -0.40617,-0.11294 -0.80238,-0.20089 -1.22408,-0.24297 l 0.12134,0.0665 0.24894,0.11374 c 0.25816,0.1124 0.49644,0.27585 0.73436,0.42428 z m -1.6583,2.09366 c 0.47812,-0.0342 0.93557,-0.0885 1.39324,-0.23428 -0.15121,-0.35622 -0.31718,-0.69749 -0.54001,-1.01813 -0.27532,0.0652 -0.54451,0.10995 -0.82863,0.11918 z m -0.0108,1.61597 c 0.51424,-0.003 1.01239,-0.11347 1.52592,-0.1322 0.13139,-0.0108 0.39589,-0.0294 0.39651,-0.21202 3.8e-4,-0.0356 -0.0108,-0.0663 -0.0136,-0.0964 l -0.0706,-0.28977 c -0.0655,-0.28979 -0.18106,-0.55974 -0.29707,-0.82925 -0.50376,0.15066 -1.01741,0.20984 -1.54086,0.2492 z m 1.68411,-1.92048 c 0.36649,-0.11836 0.71565,-0.2847 1.03842,-0.4947 -0.30847,-0.34694 -0.63792,-0.67808 -1.03373,-0.92335 -0.16939,0.13655 -0.35614,0.25057 -0.55512,0.3389 l 0.10587,0.1884 0.20686,0.35636 c 0.0961,0.16777 0.16641,0.35114 0.23753,0.53434 z m 1.3084,-0.63114 c 0.24432,-0.15609 0.47146,-0.33749 0.67739,-0.54151 -0.39544,-0.36207 -0.90765,-0.60787 -1.40997,-0.7974 -0.10697,0.12677 -0.22967,0.23291 -0.34695,0.34432 0.40561,0.26578 0.76552,0.63294 1.07955,0.99472 z m 0.19763,0.23943 c 0.34377,0.40287 0.65273,0.84618 0.89471,1.31951 0.34656,-0.19709 0.68761,-0.4148 0.98829,-0.6778 -0.31364,-0.45358 -0.69858,-0.90221 -1.14959,-1.22358 -0.14253,0.13683 -0.29604,0.25818 -0.45855,0.37971 z"
       id="path5397"
       sodipodi:nodetypes="ccccccccccccccccccccccccccccccccccccccccc" />
    <path
       style="clip-rule:evenodd;fill:#ff00ff;fill-rule:evenodd;stroke-width:0.39346805"
       inkscape:connector-curvature="0"
       d="m 230.45244,146.79024 c -2.51864,0.97256 -4.3117,3.5844 -4.32063,6.27768 -0.0108,3.62895 2.88067,6.63713 6.52928,6.64924 3.82725,0.0136 6.6786,-3.15481 6.69093,-6.88999 0.005,-1.26537 -0.43921,-2.4665 -1.10181,-3.52597 l -0.26984,0.1922 c -0.25464,0.17699 -0.51463,0.34379 -0.78936,0.49043 0.056,0.117 0.11593,0.24922 0.11565,0.38163 5.8e-4,0.0511 -0.0163,0.16235 -0.0877,0.16207 -0.13681,-4.3e-4 -0.26277,-0.29558 -0.30833,-0.39729 -0.18867,0.0603 -0.39161,0.16152 -0.59546,0.16098 -0.0453,4.6e-4 -0.13683,-0.0364 -0.13655,-0.0972 4.6e-4,-0.16289 0.47827,-0.3034 0.60046,-0.35886 -0.2321,-0.46821 -0.49524,-0.88575 -0.85437,-1.2682 -0.36187,0.20225 -0.7284,0.37884 -1.11998,0.51959 0.0798,0.19845 0.16072,0.39211 0.22614,0.59569 l 0.12541,0.38638 c 0.0245,0.0866 0.0557,0.17808 0.0554,0.26984 -0.001,0.37108 -0.32125,0.5073 -0.63211,0.54169 l -0.73726,0.0888 c -0.28453,0.0345 -0.57426,0.0489 -0.86386,0.0529 l 0.003,0.45208 c -4.1e-4,0.0964 -8.4e-4,0.25925 -0.14334,0.25844 -0.13221,-4.6e-4 -0.16668,-0.11321 -0.17184,-0.22912 l -0.008,-0.43211 c -0.13682,-4.3e-4 -0.54888,0.0136 -0.54821,-0.19979 4.1e-4,-0.10669 0.11728,-0.13682 0.20443,-0.13655 0.0806,4e-4 0.16234,0.005 0.24921,0.005 l 0.1265,5.4e-4 -0.005,-1.28586 -0.42724,-0.0217 a 1.9118611,1.9118611 0 0 0 -0.21718,-0.37165 l 0.6707,0.0483 0.003,-1.13867 c -0.27964,-0.0163 -0.53844,-0.0725 -0.80806,-0.15013 -0.0865,0.11673 -0.3481,0.64409 -0.47936,0.64414 -0.066,-2.7e-4 -0.10641,-0.0719 -0.10615,-0.13247 7.1e-4,-0.21854 0.17891,-0.47201 0.29648,-0.64471 a 2.5921674,2.5921674 0 0 1 -0.58272,-0.34749 c -0.17861,0.11103 -0.83595,0.66299 -0.91742,0.66272 -0.066,-2.8e-4 -0.0956,-0.0867 -0.0956,-0.14253 7.1e-4,-0.21852 0.6012,-0.57201 0.76915,-0.68326 -0.12052,-0.12243 -0.2321,-0.25517 -0.33868,-0.38755 z m 1.61752,-0.34523 -0.0407,-1.6e-4 c -0.42651,-0.001 -0.81324,0.10397 -1.21508,0.25029 0.0811,0.10696 0.16696,0.19899 0.26823,0.28037 0.31582,-0.21229 0.64215,-0.37365 0.98776,-0.53028 z"
       id="path5399" />
    <path
       style="clip-rule:evenodd;fill:#ff00ff;fill-rule:evenodd;stroke-width:0.39346805"
       inkscape:connector-curvature="0"
       d="m 232.44594,146.60873 c -0.42216,0.12054 -0.784,0.30748 -1.16052,0.53996 0.16722,0.10723 0.33995,0.19899 0.51709,0.28064 l 0.20469,-0.27864 0.26006,-0.31427 z m -0.35448,0.93408 c 0.2036,0.0662 0.40609,0.11808 0.61952,0.15962 l 0.0245,-0.90489 c -0.0514,-0.0245 -0.5925,0.67436 -0.64346,0.7454 z m 0.953,-0.72355 -0.008,0.87386 a 5.0926568,5.0926568 0 0 0 0.62601,-0.11483 c -0.18189,-0.28011 -0.36928,-0.53439 -0.6176,-0.75911 z m 0.94305,0.63342 a 4.2848668,4.2848668 0 0 0 0.40721,-0.25301 c -0.3145,-0.2245 -0.61333,-0.38801 -0.97884,-0.51672 0.15664,0.19872 0.30836,0.39762 0.44972,0.60114 z"
       id="path5401" />
    <path
       style="clip-rule:evenodd;fill-rule:evenodd;stroke-width:0.39346805"
       inkscape:connector-curvature="0"
       d="m 226.9381,152.10501 c -0.0863,0.0502 -0.1732,0.10068 -0.25953,0.15637 0.0747,-0.90944 0.52145,-2.40748 1.27002,-2.9689 -0.0514,0.15718 -0.0874,0.30973 -0.10315,0.4722 -0.47489,0.69995 -0.75741,1.5123 -0.90764,2.34009 z m 9.93369,5.44058 -0.0701,-0.19844 c 0.4893,-0.45564 0.89773,-1.01375 1.16342,-1.63218 l 0.37197,-0.30929 c -0.31239,0.81189 -0.73692,1.62886 -1.46527,2.13996 z"
       id="path5403" />
    <path
       style="clip-rule:evenodd;fill-rule:evenodd;stroke-width:0.39346805"
       inkscape:connector-curvature="0"
       d="m 236.65251,157.80389 c -1.14211,0.90082 -2.46493,1.49137 -3.93335,1.48651 -3.58802,-0.0108 -6.16606,-2.85613 -6.15441,-6.37334 0.003,-0.925 1.59937,-0.92487 1.60221,-1.7838 0.001,-0.43709 -0.16993,-0.85439 -0.16858,-1.28641 0.003,-0.98092 0.90003,-1.75552 1.84567,-1.7523 0.97576,0.003 2.33474,0.86155 2.33119,1.93923 -0.002,0.64532 -0.5067,0.94287 -0.50687,1.32472 -5.4e-4,0.12216 0.019,0.24405 0.019,0.36605 -4.4e-4,0.1322 -0.19329,0.15691 -0.20903,0.29908 l -0.0109,0.0765 -0.0882,0.13139 -0.076,0.13737 c -0.0358,0.0557 -0.24432,0.21283 -0.31054,0.2839 -0.11727,0.12677 -0.28579,0.15148 -0.45296,0.15121 -0.10669,-4.1e-4 -0.21827,-0.005 -0.32024,-0.0317 l -0.27865,-0.0768 a 0.63899206,0.63899206 0 0 0 -0.14199,-0.0163 c -0.1531,-4.6e-4 -0.33084,0.1056 -0.33146,0.27353 -8.6e-4,0.27432 0.1504,0.54426 0.13927,0.82359 l -0.019,0.7373 0.0108,0.0507 0.0806,0.24378 0.0598,0.20904 c 0.0909,0.34056 0.62501,0.31645 0.97436,0.45487 l 0.29943,0.1132 c 0.0404,0.0163 0.0913,0.0453 0.13764,0.0453 0.18297,5.7e-4 0.39772,-0.34452 0.70269,-0.34355 0.11673,5.5e-4 0.12108,0.17863 0.22288,0.16913 l 0.28974,-0.0245 c 0.0606,-0.0109 0.10533,0.23401 0.10533,0.2849 -0.001,0.42652 -0.29748,0.97488 -0.7755,0.9733 -0.19818,-7.1e-4 -0.35023,-0.15826 -0.53263,-0.15934 -0.0757,-2.5e-4 -0.64148,0.15527 -0.79814,0.18025 -0.2237,0.0348 -0.44766,0.0695 -0.67111,0.0686 -0.17266,-4.6e-4 -0.42729,0.005 -0.57456,-0.088 l -0.11619,-0.0771 c -0.019,-0.0109 -0.0412,-0.0245 -0.0657,-0.0245 -0.18296,-5.7e-4 -0.27587,0.46177 -0.27627,0.58295 -0.002,0.55945 0.70924,0.77 1.14633,0.77147 0.27893,8.7e-4 0.5687,-0.0391 0.82878,-0.1504 l 0.78885,-0.34246 c 0.56939,-0.24703 1.53568,-0.35063 1.69886,-0.43704 0.14225,-0.0752 0.25437,-0.2074 0.25491,-0.37492 a 0.92464983,0.92464983 0 0 0 -0.0245,-0.20821 l -0.0701,-0.27995 -0.0554,-0.34058 -0.0448,-0.37118 c -0.0985,-0.89469 -1.16036,-0.94385 -1.15816,-1.61 8.7e-4,-0.27433 0.29096,-0.4311 0.30198,-0.69041 0.005,-0.10668 0.0217,-0.17781 0.12297,-0.22831 l 0.10149,-0.0453 c 0.14199,-0.0657 0.001,-0.38123 0.18433,-0.44681 l 0.0969,-0.035 c 0.2188,-0.0757 0.0217,-0.52842 0.33238,-0.56827 l 0.24922,-0.0345 0.30007,-0.0597 c 0.36619,-0.0752 0.3473,-0.44113 0.77999,-0.62777 l 0.45235,-0.19681 0.16885,-0.10615 0.19817,-0.20741 c 0.17891,-0.17727 0.47877,-0.21201 0.71761,-0.2112 1.67222,0.005 2.89281,1.31077 2.88737,2.94721 -0.005,1.27561 -1.04165,2.89368 -2.44436,2.88903 -0.0913,-1.6e-4 -0.1827,-0.0108 -0.27418,-0.0108 -0.22885,-7.4e-4 -0.24514,0.25328 -0.24487,0.43244 -0.002,0.5894 0.70848,0.9982 0.70846,1.00846 5.6e-4,0.051 -0.0109,0.10149 -0.0109,0.15202 l -2.9e-4,0.0109 z"
       id="path5405" />
  </g>
</svg>
