<svg width="142" height="32" viewBox="0 0 142 32" fill="none" xmlns="http://www.w3.org/2000/svg">
<path fill-rule="evenodd" clip-rule="evenodd" d="M138.036 17.7163C138.036 15.8948 136.962 14.5235 135.269 14.5235C133.575 14.5235 132.502 15.8948 132.502 17.7163C132.502 19.5378 133.575 20.9091 135.269 20.9091C136.966 20.9126 138.036 19.5413 138.036 17.7163ZM137.953 13.3011V8.52916C137.953 8.21404 138.164 7.94047 138.468 7.86082L141 7.18555V23.3332H138.191V21.9619C137.485 22.9903 136.218 23.5929 134.632 23.5929C131.373 23.5929 129.465 20.9784 129.465 17.7198C129.465 14.4612 131.373 11.8466 134.632 11.8466C136.214 11.8432 137.374 12.5288 137.953 13.3011ZM120.676 12.0994V13.4708C121.192 12.5046 122.349 11.8397 124.021 11.8397C126.722 11.8397 128.159 13.6404 128.159 16.3208V23.3332H125.115V16.667C125.115 15.3581 124.558 14.4577 123.207 14.4577C121.729 14.4577 120.915 15.3996 120.915 16.9025V23.3332H117.871V12.0994H120.676ZM110.755 23.5929C107.475 23.5929 105.65 22.1766 105.65 18.5336V12.0994H108.694V18.5751C108.694 20.1404 109.401 20.8676 110.751 20.8676C112.102 20.8676 112.808 20.1369 112.808 18.5751V12.0994H115.852V18.5301C115.859 22.1766 114.034 23.5929 110.755 23.5929ZM95.6009 17.7163C95.6009 19.7317 96.8441 20.9091 98.4509 20.9091C100.058 20.9091 101.301 19.7283 101.301 17.7163C101.301 15.7043 100.058 14.5235 98.4509 14.5235C96.8475 14.5235 95.6009 15.7009 95.6009 17.7163ZM98.4544 23.5929C94.8529 23.5929 92.557 20.9126 92.557 17.7198C92.557 14.527 94.8494 11.8466 98.4544 11.8466C102.056 11.8466 104.352 14.527 104.352 17.7198C104.348 20.9126 102.056 23.5929 98.4544 23.5929ZM83.2798 17.7163C83.2798 19.5378 84.3533 20.9091 86.0467 20.9091C87.7401 20.9091 88.8136 19.5378 88.8136 17.7163C88.8136 15.8948 87.7401 14.5235 86.0467 14.5235C84.3533 14.5235 83.2798 15.8948 83.2798 17.7163ZM83.3664 22.135V26.8065C83.3664 27.1216 83.1551 27.3952 82.8504 27.4748L80.3225 28.1397V12.0994H83.1309V13.4708C83.8373 12.4423 85.1048 11.8397 86.6908 11.8397C89.9494 11.8397 91.8575 14.4542 91.8575 17.7128C91.8575 20.9715 89.9494 23.586 86.6908 23.586C85.1013 23.5929 83.9447 22.9072 83.3664 22.135ZM71.2808 16.9441V23.3332H68.2368V16.667C68.2368 15.4239 67.7867 14.4577 66.4361 14.4577C65.0198 14.4577 64.2475 15.3788 64.2475 16.8817V23.3366H61.2036V12.0994H64.0121V13.4708C64.528 12.5046 65.6431 11.8397 67.2499 11.8397C68.7736 11.8397 69.8644 12.4388 70.5085 13.4257C71.4955 12.3315 72.6313 11.8397 74.2381 11.8397C76.9392 11.8397 78.3105 13.7062 78.3105 16.3208V23.3332H75.2666V16.667C75.2666 15.4239 74.8164 14.4577 73.4659 14.4577C72.0287 14.4577 71.2808 15.3788 71.2808 16.9441ZM51.0469 17.7163C51.0469 19.7317 52.2901 20.9091 53.8969 20.9091C55.5037 20.9091 56.7468 19.7283 56.7468 17.7163C56.7468 15.7043 55.5037 14.5235 53.8969 14.5235C52.2901 14.5235 51.0469 15.7009 51.0469 17.7163ZM53.8969 23.5929C50.2954 23.5929 47.9995 20.9126 47.9995 17.7198C47.9995 14.527 50.292 11.8466 53.8969 11.8466C57.5018 11.8466 59.7942 14.527 59.7942 17.7198C59.7942 20.9126 57.4983 23.5929 53.8969 23.5929ZM32.2051 15.7009C32.2051 10.9428 35.4845 7.7881 39.8581 7.7881C43.6535 7.7881 46.6559 10.039 47.2342 13.7478H43.889C43.4388 11.8397 41.8944 10.7662 39.8581 10.7662C37.0705 10.7662 35.5052 12.6951 35.5052 15.6974C35.5052 18.6998 37.0705 20.6286 39.8581 20.6286C41.8944 20.6286 43.4388 19.5551 43.889 17.6471H47.2342C46.6559 21.3558 43.6535 23.6068 39.8581 23.6068C35.4845 23.6137 32.2051 20.4624 32.2051 15.7009Z" fill="white"/>
<path fill-rule="evenodd" clip-rule="evenodd" d="M2.25012 24.2767C1.47442 23.8022 1 22.9573 1 22.05V16.9837C1 16.7898 1.05194 16.6028 1.14891 16.4366C1.45018 15.9172 2.11853 15.7406 2.63796 16.0453L14.0726 22.7114C14.7409 23.1027 15.153 23.8161 15.153 24.5918V29.8416C15.153 30.0805 15.0872 30.3195 14.9625 30.5238C14.5851 31.1402 13.7817 31.3341 13.1653 30.9567L2.25012 24.2767ZM19.2946 14.6567C19.963 15.048 20.3751 15.7613 20.3751 16.537V27.189C20.3751 27.5041 20.2054 27.795 19.9318 27.9474L17.4281 29.3568C17.397 29.3741 17.3623 29.388 17.3277 29.3983V23.4837C17.3277 22.7184 16.926 22.0085 16.268 21.6137L6.22556 15.6055V8.92898C6.22556 8.73505 6.2775 8.54805 6.37446 8.38183C6.67574 7.86239 7.34408 7.68578 7.86352 7.99052L19.2946 14.6567ZM24.2986 6.78889C24.9704 7.17673 25.3825 7.89702 25.3825 8.67272V24.2317C25.3825 24.5502 25.2059 24.8446 24.9254 24.997L22.5533 26.2782V15.4462C22.5533 14.6809 22.1516 13.9745 21.4971 13.5797L11.233 7.4226V1.08891C11.233 0.894984 11.2849 0.707986 11.3784 0.541765C11.6797 0.0223259 12.348 -0.154283 12.8675 0.146991L24.2986 6.78889Z" fill="#00D395"/>
</svg>