<?xml version="1.0" standalone="no"?>
<!DOCTYPE svg PUBLIC "-//W3C//DTD SVG 20010904//EN"
 "http://www.w3.org/TR/2001/REC-SVG-20010904/DTD/svg10.dtd">
<svg version="1.0" xmlns="http://www.w3.org/2000/svg"
 width="767.000000pt" height="767.000000pt" viewBox="0 0 767.000000 767.000000"
 preserveAspectRatio="xMidYMid meet">
<metadata>
Created by potrace 1.11, written by Peter Selinger 2001-2013
</metadata>
<g transform="translate(0.000000,767.000000) scale(0.100000,-0.100000)"
fill="#000000" stroke="none">
<path d="M3619 7536 c-2 -2 -49 -6 -104 -10 -55 -4 -113 -9 -130 -11 -73 -10
-172 -25 -191 -29 -12 -2 -37 -7 -55 -10 -19 -3 -45 -8 -59 -11 -14 -3 -38 -8
-55 -11 -16 -3 -73 -16 -125 -30 -52 -14 -104 -27 -116 -29 -11 -3 -76 -23
-145 -46 -879 -291 -1621 -884 -2099 -1679 -70 -116 -230 -431 -230 -452 0 -8
-4 -18 -9 -24 -15 -15 -107 -270 -144 -399 -58 -201 -98 -394 -132 -640 -20
-145 -27 -580 -12 -759 7 -79 12 -121 33 -271 5 -35 47 -239 74 -360 53 -240
224 -663 377 -935 176 -314 441 -650 719 -910 133 -125 359 -308 369 -299 2 2
7 24 11 49 12 68 15 4063 3 4135 -14 89 -17 106 -28 149 -14 55 -65 156 -102
199 -67 79 -205 137 -422 178 l-117 22 0 148 0 149 33 1 c192 3 2337 0 2344
-4 4 -3 8 -226 8 -497 -1 -536 -5 -502 50 -426 89 124 324 401 437 516 362
366 773 561 1188 562 444 1 751 -172 939 -527 42 -78 82 -198 96 -285 10 -60
11 -252 3 -320 -17 -128 -71 -267 -148 -379 -74 -108 -154 -177 -265 -231
-118 -58 -226 -80 -380 -80 -260 0 -489 139 -730 445 -178 228 -256 284 -395
291 -297 13 -596 -322 -705 -791 -11 -46 -26 -145 -32 -215 -9 -99 -9 -2689 0
-2805 20 -258 80 -457 165 -550 95 -106 243 -177 421 -203 63 -9 282 -9 415 1
386 28 806 163 1190 381 54 31 102 56 107 56 5 0 9 5 9 10 0 6 5 10 10 10 15
0 171 106 305 206 588 438 1090 1075 1374 1742 145 339 232 652 276 994 21
159 27 531 12 709 -33 389 -142 820 -287 1134 -15 33 -38 83 -51 110 -19 42
-89 172 -132 248 -23 39 -187 285 -199 299 -7 7 -35 42 -63 78 -80 104 -182
216 -315 346 -96 93 -289 257 -337 286 -18 11 -33 24 -33 29 0 5 -6 9 -12 10
-7 0 -40 20 -73 44 -206 151 -536 321 -840 435 -118 44 -401 131 -470 144 -11
3 -76 16 -145 30 -136 27 -295 51 -405 61 -38 4 -83 9 -100 12 -34 5 -571 14
-576 9z"/>
</g>
</svg>
