<?xml version="1.0" encoding="UTF-8" standalone="no"?>
<svg
   xmlns:dc="http://purl.org/dc/elements/1.1/"
   xmlns:cc="http://creativecommons.org/ns#"
   xmlns:rdf="http://www.w3.org/1999/02/22-rdf-syntax-ns#"
   xmlns:svg="http://www.w3.org/2000/svg"
   xmlns="http://www.w3.org/2000/svg"
   id="svg17"
   version="1.1"
   viewBox="0 0 1060.2551 1067.0387"
   height="1067.0387"
   width="1060.2551">
  <metadata
     id="metadata21">
    <rdf:RDF>
      <cc:Work
         rdf:about="">
        <dc:format>image/svg+xml</dc:format>
        <dc:type
           rdf:resource="http://purl.org/dc/dcmitype/StillImage" />
        <dc:title>logo-gray_head</dc:title>
      </cc:Work>
    </rdf:RDF>
  </metadata>
  <!-- Generator: Sketch 44 (41411) - http://www.bohemiancoding.com/sketch -->
  <title
     id="title2">logo-gray_head</title>
  <desc
     id="desc4">Created with Sketch.</desc>
  <defs
     id="defs6">
    <clipPath
       id="clip0">
      <rect
         style="fill:#ffffff"
         y="0"
         x="0"
         width="121"
         height="27"
         id="rect109" />
    </clipPath>
    <clipPath
       id="clip0-3">
      <rect
         width="121"
         height="27"
         id="rect109-6"
         x="0"
         y="0"
         style="fill:#ffffff" />
    </clipPath>
    <clipPath
       id="clip0-3-5">
      <rect
         width="121"
         height="27"
         id="rect109-6-0"
         x="0"
         y="0"
         style="fill:#ffffff" />
    </clipPath>
    <clipPath
       id="clip0-3-5-6">
      <rect
         width="121"
         height="27"
         id="rect109-6-0-5"
         x="0"
         y="0"
         style="fill:#ffffff" />
    </clipPath>
    <clipPath
       id="clip0-3-5-7">
      <rect
         width="121"
         height="27"
         id="rect109-6-0-8"
         x="0"
         y="0"
         style="fill:#ffffff" />
    </clipPath>
    <clipPath
       id="clip0-3-5-7-9">
      <rect
         width="121"
         height="27"
         id="rect109-6-0-8-4"
         x="0"
         y="0"
         style="fill:#ffffff" />
    </clipPath>
    <clipPath
       id="clip0-3-5-7-9-3">
      <rect
         width="121"
         height="27"
         id="rect109-6-0-8-4-6"
         x="0"
         y="0"
         style="fill:#ffffff" />
    </clipPath>
  </defs>
  <g
     transform="translate(-829.7201,15.194551)"
     id="g146">
    <g
       id="Page-1-6"
       transform="matrix(0.96586971,0,0,0.96586971,1779.6961,-15.235855)"
       style="fill:none;fill-rule:evenodd;stroke:none;stroke-width:1">
      <g
         id="DCS-v5.0.0-2"
         transform="translate(-743,-300)">
        <g
           id="logo-gray_head-61"
           transform="translate(742,300)">
          <g
             id="Group-6-Copy-4-8">
            <g
               id="Group-4-7"
               style="mix-blend-mode:luminosity">
              <rect
                 id="Rectangle-20-9"
                 transform="rotate(45,57.785367,58.43182)"
                 x="17.699594"
                 y="18.158464"
                 width="80.171547"
                 height="80.546715"
                 style="fill:#fbba00" />
              <polygon
                 id="Rectangle-20-Copy-20"
                 transform="rotate(45,57.785367,58.43182)"
                 points="97.87114,18.158464 72.589721,73.305453 17.699594,98.705177 17.699594,18.158464 "
                 style="fill:#f7a600" />
              <path
                 d="m 18.642789,53.461993 h 26.275745 l 12.906382,-12.91988 12.795813,12.809195 c 0,0 27.538175,0.812201 25.924579,0 -1.613597,-0.8122 -39.242067,-39.283107 -39.242067,-39.283107 z"
                 id="Path-1-2"
                 style="fill:#fefffe" />
              <polygon
                 id="Rectangle-1-Copy-2-3"
                 style="opacity:0.28633399;mix-blend-mode:multiply;fill:#0a122a"
                 transform="rotate(1,86.238406,57.645231)"
                 points="115.16304,56.650632 59.553612,114.75159 57.31377,0.53887012 " />
            </g>
          </g>
        </g>
      </g>
    </g>
    <g
       style="fill:none"
       id="g125"
       transform="matrix(0.87435226,0,0,0.87435226,296.16137,1126.168)">
      <g
         id="g107"
         clip-path="url(#clip0)"
         transform="matrix(5.0593175,0,0,5.0593175,610.23315,-221.60606)">
        <path
           id="path105"
           d="M 1.08359,21.0428 C 0.411223,20.6315 0,19.8992 0,19.1127 v -4.3914 c 0,-0.1681 0.0450245,-0.3301 0.12907,-0.4742 0.261142,-0.4503 0.840457,-0.6033 1.2907,-0.3392 l 9.91143,5.7781 c 0.5793,0.3392 0.9365,0.9576 0.9365,1.6299 v 4.5505 c 0,0.2071 -0.0571,0.4142 -0.1651,0.5913 -0.3272,0.5343 -1.0236,0.7024 -1.5579,0.3752 z M 15.8576,12.7042 c 0.5793,0.3392 0.9365,0.9576 0.9365,1.6299 v 9.233 c 0,0.2732 -0.1471,0.5253 -0.3842,0.6574 l -2.1702,1.2217 c -0.027,0.015 -0.057,0.027 -0.087,0.036 v -5.1268 c 0,-0.6634 -0.3482,-1.2787 -0.9185,-1.6209 L 4.52946,13.5267 V 7.73955 c 0,-0.1681 0.04503,-0.33018 0.12907,-0.47426 C 4.91967,6.81504 5.49899,6.66196 5.94923,6.9261 Z M 20.195,5.88454 c 0.5823,0.33618 0.9395,0.96052 0.9395,1.63289 V 21.0038 c 0,0.2761 -0.1531,0.5312 -0.3962,0.6633 l -2.0562,1.1106 v -9.3891 c 0,-0.6633 -0.3481,-1.2757 -0.9154,-1.6179 L 8.86982,6.43384 V 0.943854 c 0,-0.168091 0.04502,-0.330179 0.12607,-0.474258 0.26114,-0.4502441 0.84045,-0.603327 1.29071,-0.342185 z"
           style="clip-rule:evenodd;fill:#00d395;fill-rule:evenodd" />
      </g>
    </g>
  </g>
</svg>
