<?xml version="1.0" ?><!DOCTYPE svg  PUBLIC '-//W3C//DTD SVG 1.1//EN'  'http://www.w3.org/Graphics/SVG/1.1/DTD/svg11.dtd'><svg height="512px" style="enable-background:new 0 0 512 512;" version="1.1" viewBox="0 0 512 512" width="512px" xml:space="preserve" xmlns="http://www.w3.org/2000/svg" xmlns:xlink="http://www.w3.org/1999/xlink"><g id="C_-_22_x2C__Growth_x2C__Charity_x2C__donation_x2C__finance_x2C__loan_x2C__money_x2C__payment"><g><path d="M204.57,250.303c1.245-0.02,2.518-0.031,3.819-0.031c5.931,0,12.796,0.225,20.25,0.723    c0.269,0.019,0.543,0.039,0.813,0.058c0.556,0.039,1.111,0.076,1.674,0.118c18.509,1.366,40.295,4.407,60.284,9.863    c33.351,9.103,51.578,21.982,54.178,38.28c0,0.009,0.004,0.017,0.006,0.025c0.01,0.066,0.015,0.128,0.025,0.194    c0.068,0.456,0.134,0.909,0.184,1.356c19.631-13.972,46.725-28.238,69.656-34.841c0.133-0.037,0.264-0.073,0.395-0.11    c0.647-0.185,1.293-0.367,1.934-0.538c0.518-0.141,1.029-0.27,1.543-0.4c0.267-0.067,0.537-0.142,0.803-0.207    c0.793-0.196,1.58-0.384,2.359-0.559c-12.913-24.951-60.505-43.198-114.75-43.198C264.841,221.037,225.379,232.501,204.57,250.303    z"/><path d="M131.722,347.33c-5.176-8.778-10.708-17.683-15.919-25.509c-6.593-9.902-12.668-18.072-16.844-22.057    c-6.044-5.778-9.749-8.354-12.015-8.354c-0.417,0-1.118,0.071-2.366,0.689c-10.397,5.12-36.34,23.07-38.771,28.159    c-1.348,2.823-0.496,5.272,1.558,10.54c1.068,2.74,2.279,5.847,3.223,9.607c4.295,17.086,3.43,37.12,2.593,56.496    c-0.861,19.912-1.673,38.72,3.037,52.495c0.189,0.555,0.424,1.242,2.545,1.242c2.874,0,7.144-1.444,11.146-3.768    c5.239-3.055,15.298-7.852,26.946-13.405c12.202-5.817,26.033-12.412,37.239-18.401c17.288-9.24,19.685-12.531,19.989-13.098    c1.657-3.661,0.682-9.769-2.916-18.121C147.551,375.432,140.104,361.547,131.722,347.33z M104.118,399.905    c-5.614,0.63-10.681-3.384-11.321-8.972c-0.633-5.59,3.406-10.64,9.021-11.269c5.615-0.63,10.681,3.384,11.322,8.972    C113.773,394.225,109.734,399.276,104.118,399.905z"/><path d="M466.83,288.245c-0.883-12.055-18.511-16.43-30.145-16.43c-1.977,0-3.824,0.116-5.488,0.347    c-0.717,0.099-1.447,0.216-2.183,0.341c-0.261,0.044-0.524,0.091-0.788,0.139c-0.572,0.103-1.15,0.212-1.733,0.329    c-0.306,0.062-0.614,0.127-0.923,0.192c-0.53,0.112-1.064,0.23-1.603,0.354c-0.398,0.093-0.798,0.188-1.2,0.285    c-0.438,0.107-0.879,0.217-1.321,0.332c-0.535,0.137-1.073,0.278-1.615,0.427c-0.298,0.081-0.598,0.165-0.897,0.249    c-0.713,0.201-1.43,0.407-2.152,0.625c-0.115,0.035-0.23,0.069-0.346,0.104c-24.014,7.299-53.314,23.544-71.445,37.628    c-0.436,0.339-0.854,0.674-1.276,1.01c-1.229,2.406-2.796,4.25-4.31,5.612c-6.387,5.746-16.801,7.91-29.032,7.91    c-20.038,0.001-44.952-5.809-65.011-11.192c-1.303-0.35-2.417-0.648-3.312-0.882c-2.505-0.651-4.007-3.209-3.355-5.714    c0.651-2.504,3.208-4.011,5.714-3.354c0.915,0.237,2.052,0.542,3.383,0.899c8.757,2.351,26.98,7.241,44.715,9.574    c25.926,3.411,36.403-0.404,40.629-4.207c1.869-1.682,2.979-3.838,3.348-6.521c0.007-0.049,0.012-0.1,0.017-0.149    c0.058-0.453,0.092-0.925,0.107-1.409c0.003-0.086,0.009-0.168,0.011-0.255c0.008-0.498-0.01-1.016-0.044-1.546    c-0.009-0.145-0.022-0.293-0.034-0.44c-0.045-0.525-0.105-1.062-0.191-1.618c-0.004-0.025-0.006-0.048-0.01-0.072    c-3.534-22.365-56.846-36.296-103.233-40.106c-8.587-0.704-16.937-1.063-24.688-1.063c-5.594,0-10.627,0.194-14.961,0.577    c-0.023,0.002-0.045-0.001-0.067,0.001c-2.907,0.258-5.466,0.6-7.61,1.022c-21.196,4.189-50.532,21.298-71.953,33.79    c-1.439,0.839-2.845,1.659-4.214,2.455c0.097,0.113,0.197,0.24,0.295,0.356c0.293,0.35,0.59,0.706,0.891,1.074    c0.199,0.244,0.401,0.495,0.604,0.747c0.232,0.289,0.466,0.583,0.703,0.883c0.239,0.303,0.479,0.608,0.722,0.92    c0.286,0.369,0.575,0.744,0.866,1.126c0.177,0.23,0.353,0.462,0.531,0.698c0.374,0.494,0.75,0.999,1.131,1.514    c0.161,0.219,0.323,0.44,0.486,0.662c0.356,0.484,0.714,0.977,1.076,1.479c0.15,0.209,0.302,0.419,0.453,0.631    c0.374,0.522,0.751,1.054,1.13,1.591c0.137,0.195,0.273,0.388,0.412,0.585c0.438,0.625,0.88,1.261,1.324,1.904    c0.129,0.188,0.258,0.376,0.388,0.565c0.464,0.676,0.93,1.358,1.399,2.052c0.074,0.11,0.149,0.222,0.223,0.332    c0.456,0.675,0.913,1.358,1.372,2.049c0.079,0.118,0.158,0.235,0.237,0.354c0.496,0.747,0.993,1.504,1.492,2.266    c0.096,0.146,0.191,0.292,0.287,0.438c0.505,0.774,1.011,1.554,1.519,2.342c0.062,0.096,0.123,0.191,0.185,0.287    c0.512,0.796,1.023,1.597,1.537,2.403c0.03,0.048,0.06,0.095,0.09,0.143c0.522,0.823,1.045,1.652,1.568,2.486    c0.084,0.134,0.168,0.269,0.253,0.404c0.512,0.817,1.023,1.637,1.533,2.462c0.071,0.114,0.141,0.229,0.212,0.343    c1.053,1.704,2.102,3.42,3.142,5.141c0.085,0.142,0.171,0.282,0.256,0.424c0.49,0.813,0.979,1.625,1.464,2.438    c0.101,0.169,0.202,0.339,0.303,0.508c0.487,0.816,0.972,1.633,1.454,2.447c0.061,0.104,0.121,0.206,0.182,0.31    c0.432,0.731,0.86,1.462,1.287,2.19c0.112,0.193,0.226,0.386,0.338,0.579c0.436,0.746,0.866,1.489,1.294,2.229    c0.146,0.254,0.292,0.506,0.438,0.76c0.41,0.711,0.817,1.42,1.221,2.126c0.151,0.265,0.3,0.527,0.451,0.792    c0.296,0.521,0.589,1.037,0.881,1.552c0.192,0.34,0.383,0.679,0.574,1.017c0.327,0.581,0.651,1.158,0.972,1.733    c0.19,0.34,0.379,0.679,0.566,1.016c0.328,0.589,0.652,1.175,0.973,1.755c0.208,0.376,0.411,0.747,0.615,1.118    c0.177,0.322,0.352,0.643,0.525,0.962c0.346,0.633,0.685,1.257,1.019,1.876c0.137,0.254,0.274,0.507,0.409,0.758    c0.719,1.335,1.411,2.636,2.074,3.899c0.082,0.155,0.163,0.311,0.244,0.465c0.386,0.735,0.76,1.457,1.125,2.164    c0.059,0.114,0.119,0.229,0.177,0.344c0.645,1.255,1.254,2.461,1.825,3.611c0.021,0.045,0.043,0.088,0.065,0.132    c0.354,0.714,0.691,1.404,1.014,2.073c0.042,0.089,0.085,0.177,0.127,0.265c0.125,0.261,0.258,0.532,0.378,0.786    c18.494-6.784,34.835-10.087,49.841-10.087c17.561,0,31.571,4.488,45.121,8.828c14.205,4.551,28.895,9.257,48.584,9.257    c3.193,0,6.491-0.125,9.803-0.372c16.989-1.26,55.979-18.11,92.711-40.066C448.264,317.143,467.455,296.731,466.83,288.245z"/><path d="M214.837,155.974c7.194,5.452,16.155,8.216,26.635,8.216c0.001,0,0.001,0,0.002,0c7.292,0,15.288-1.369,23.79-4.044    l37.801,33.79v22.416c0,2.588,2.098,4.685,4.686,4.685s4.686-2.097,4.686-4.685v-58.701l34.436-28.696    c0.292,0.125,0.594,0.231,0.914,0.294c6.326,1.254,12.365,1.89,17.953,1.89c14.484,0,25.982-4.133,34.174-12.284    c11.365-11.305,14.98-29.26,10.454-51.927c-0.372-1.858-1.825-3.31-3.685-3.678c-6.327-1.254-12.369-1.89-17.957-1.89    c-14.488,0-25.984,4.134-34.168,12.286c-10.4,10.342-14.291,26.252-11.418,46.223l-30.703,25.585V83.899    c0-2.588-2.098-4.686-4.686-4.686s-4.686,2.097-4.686,4.686v97.469l-31.911-28.525c0.887-21.894-5.118-38.382-17.475-47.746    c-7.197-5.45-16.157-8.214-26.631-8.214c-8.047,0-16.939,1.651-26.429,4.906c-1.794,0.615-3.04,2.251-3.156,4.144    C196.041,128.993,202.05,146.298,214.837,155.974z M359.081,121.444c0.315,0.029,0.626,0.051,0.938,0.077    C359.707,121.496,359.396,121.474,359.081,121.444z M362.088,121.659c0.291,0.016,0.582,0.033,0.869,0.045    C362.67,121.692,362.379,121.675,362.088,121.659z M401.746,71.875c2.193,13.169,2.117,29.832-8.443,40.337    c-6.373,6.34-15.646,9.556-27.564,9.556c0,0-0.002,0-0.004,0c11.916-0.001,21.188-3.217,27.561-9.556    c10.561-10.505,10.636-27.167,8.443-40.337c-4.586-0.761-8.953-1.144-13.02-1.144c0.002,0,0.004,0,0.006,0    C392.791,70.731,397.16,71.115,401.746,71.875z M354.799,89.829c-0.131,0.309-0.258,0.618-0.379,0.93    C354.541,90.447,354.668,90.138,354.799,89.829z M360.888,80.579c-0.333,0.34-0.654,0.688-0.967,1.04    C360.233,81.266,360.555,80.919,360.888,80.579z M359.439,82.174c-0.354,0.42-0.693,0.847-1.018,1.284    C358.746,83.021,359.086,82.594,359.439,82.174z M357.992,84.059c-0.225,0.318-0.442,0.64-0.652,0.964    C357.55,84.698,357.768,84.377,357.992,84.059z M356.925,85.669c-0.265,0.433-0.515,0.873-0.758,1.317    C356.41,86.542,356.66,86.102,356.925,85.669z M355.78,87.722c-0.181,0.352-0.352,0.707-0.519,1.064    C355.429,88.428,355.6,88.073,355.78,87.722z M351.58,107.24c-0.002,0.147-0.003,0.294-0.003,0.442    C351.577,107.534,351.578,107.387,351.58,107.24z M354.106,91.583c-0.167,0.46-0.323,0.923-0.472,1.391    C353.783,92.506,353.939,92.043,354.106,91.583z M353.369,93.866c-0.084,0.286-0.162,0.572-0.237,0.858    C353.207,94.437,353.285,94.151,353.369,93.866z M352.785,96.126c-0.066,0.292-0.132,0.584-0.192,0.878    C352.653,96.711,352.719,96.419,352.785,96.126z M352.4,97.991c-0.051,0.281-0.097,0.564-0.143,0.846    C352.304,98.555,352.35,98.272,352.4,97.991z M352.026,100.415c-0.03,0.235-0.061,0.47-0.087,0.707    C351.966,100.885,351.996,100.65,352.026,100.415z M351.76,102.982c-0.015,0.183-0.031,0.365-0.045,0.548    C351.729,103.348,351.745,103.166,351.76,102.982z M351.65,104.668c-0.01,0.187-0.017,0.374-0.023,0.561    C351.634,105.042,351.641,104.855,351.65,104.668z M351.684,111.457c0.005,0.088,0.01,0.177,0.016,0.265    C351.693,111.633,351.688,111.544,351.684,111.457z M351.762,112.676l14.404-12.003c0.994-0.83,2.23-1.177,3.424-1.068    c-1.191-0.106-2.424,0.241-3.416,1.068l-14.412,12.01C351.762,112.68,351.762,112.678,351.762,112.676z M241.473,154.819    c-0.001,0-0.001,0-0.001,0c0.01,0,0.021-0.001,0.032-0.001c-0.009,0-0.019,0.001-0.029,0.001H241.473z M255.123,153.187    c0.616-0.137,1.235-0.281,1.86-0.436l-14.345-12.823c-1.93-1.724-2.095-4.687-0.371-6.616c0.863-0.966,2.038-1.49,3.237-1.556    c-1.197,0.068-2.368,0.591-3.229,1.556c-1.725,1.929-1.559,4.892,0.371,6.616l14.345,12.823    C256.363,152.907,255.742,153.048,255.123,153.187z M243.57,154.771c0.261-0.011,0.525-0.027,0.788-0.042    C244.095,154.744,243.83,154.761,243.57,154.771z M245.695,154.64c0.33-0.025,0.66-0.053,0.993-0.085    C246.355,154.587,246.024,154.614,245.695,154.64z M247.81,154.433c1.559-0.18,3.151-0.42,4.777-0.726    C250.962,154.012,249.369,154.254,247.81,154.433z M253.022,153.626c0.583-0.114,1.17-0.234,1.761-0.364    C254.192,153.391,253.605,153.513,253.022,153.626z M261.779,144.463l-0.01-0.008c-0.521-10.246-3.088-21.212-10.324-28.815    C258.688,123.245,261.258,134.212,261.779,144.463z M251.399,115.59c-0.502-0.525-1.027-1.034-1.576-1.525    C250.372,114.556,250.896,115.065,251.399,115.59z M248.02,112.567c0.598,0.453,1.166,0.931,1.717,1.42    c-0.552-0.49-1.125-0.966-1.725-1.42c-5.53-4.188-12.585-6.313-20.969-6.313c0.001,0,0.003,0,0.004,0    C235.433,106.254,242.489,108.378,248.02,112.567z"/></g></g><g id="Layer_1"/></svg>