<svg width="178" height="142" viewBox="0 0 178 142" fill="none" xmlns="http://www.w3.org/2000/svg">
<circle cx="140" cy="38" r="38" fill="#FFD200"/>
<path d="M28.0849 89.6732L28.2559 90.143L28.7257 89.972L41.5502 85.3043L42.02 85.1333L41.849 84.6634L41.0361 82.43L40.8651 81.9602L40.3952 82.1312L30.6169 85.6902L28.3014 79.3284L35.73 76.6246L36.1999 76.4536L36.0288 75.9838L35.216 73.7504L35.0449 73.2805L34.5751 73.4515L27.1465 76.1554L25.0602 70.4235L34.5555 66.9675L35.0253 66.7965L34.8543 66.3266L34.0414 64.0932L33.8704 63.6234L33.4006 63.7944L20.8593 68.3591L20.3894 68.5301L20.5604 68.9999L28.0849 89.6732ZM49.7371 81.7924L49.9081 82.2622L50.3779 82.0912L52.9541 81.1536L53.424 80.9826L53.253 80.5127L46.7124 62.5427L51.8197 60.6838L52.2895 60.5128L52.1185 60.043L51.3056 57.8096L51.1346 57.3397L50.6648 57.5108L36.9344 62.5082L36.4646 62.6792L36.6356 63.1491L37.4485 65.3825L37.6195 65.8523L38.0893 65.6813L43.1965 63.8224L46.3813 72.5725L49.7371 81.7924ZM61.288 77.5882L61.459 78.0581L61.9289 77.887L64.5051 76.9494L64.9749 76.7784L64.8039 76.3085L61.5045 67.2435L70.1336 64.1028L73.433 73.1678L73.604 73.6376L74.0738 73.4666L76.6501 72.529L77.1199 72.358L76.9489 71.8881L69.4244 51.2149L69.2534 50.745L68.7836 50.916L66.2074 51.8537L65.7375 52.0247L65.9085 52.4946L68.9787 60.9297L60.3496 64.0704L57.2795 55.6353L57.1085 55.1654L56.6386 55.3365L54.0624 56.2741L53.5925 56.4451L53.7636 56.915L61.288 77.5882Z" fill="black" stroke="black"/>
<path d="M79.2749 57.5389L76.6291 50.2699L80.4977 48.8618C83.6486 47.715 85.6344 48.5114 86.4633 50.7889C87.3604 53.2535 86.2008 55.0181 82.769 56.2672L79.2749 57.5389ZM83.0561 67.9278L80.1606 59.9724L85.277 58.1101C88.5528 56.9179 90.774 57.8759 91.6483 60.2782C92.6135 62.93 91.3859 64.896 87.7046 66.2359L83.0561 67.9278ZM81.1028 71.3945L89.3702 68.3855C94.2371 66.6141 96.1195 63.2438 94.6887 59.3129C93.5419 56.1619 91.0228 55.0649 88.3282 55.2331C89.3773 54.0386 90.2248 51.9989 89.3505 49.5967C87.8743 45.541 84.198 44.7592 79.2064 46.576L72.9044 48.8697L81.1028 71.3945ZM100.118 54.5104C99.3396 51.7905 99.9657 48.9482 102.524 48.0171C105.238 47.0292 107.465 48.9743 108.51 51.4559L100.118 54.5104ZM107.889 62.1751C111.414 60.892 112.863 58.1742 112.737 55.4995L109.992 56.4987C109.856 58.0673 108.799 59.3356 107.083 59.9601C104.369 60.948 102.062 59.173 100.833 56.4759L111.971 52.4221C111.888 52.0988 111.763 51.7556 111.65 51.4437C110.037 47.0136 106.148 44.1896 101.749 45.7907C97.35 47.3917 96.0267 52.0071 97.6846 56.5619C99.3424 61.1168 103.428 63.7989 107.889 62.1751ZM118.598 57.7475L121.249 56.7823L117.809 47.3294L121.954 41.4397L120.932 38.6319L116.554 44.8535L115.294 41.3906L112.954 42.2422L118.598 57.7475ZM132.951 52.5234L135.821 51.4787L130.336 45.6315L124.659 30.0326L122.007 30.9978L127.889 47.1583L132.951 52.5234ZM131.148 30.7447C131.511 31.7431 132.649 32.2476 133.678 31.8729C134.676 31.5095 135.223 30.3918 134.86 29.3935C134.508 28.4263 133.359 27.8906 132.361 28.254C131.331 28.6287 130.796 29.7776 131.148 30.7447ZM138.888 50.3623L141.54 49.3971L135.897 33.8918L133.245 34.857L138.888 50.3623ZM146.475 47.6012L149.126 46.636L146.208 38.6181C145.357 36.2783 145.378 32.4547 148.373 31.3646C151.805 30.1156 153.235 33.6579 154.064 35.9354L156.926 43.7972L159.578 42.832L156.716 34.9702C155.036 30.3529 152.89 27.1767 148.117 28.914C144.561 30.2085 144.428 33.825 144.397 34.6136L143.171 31.2442L140.831 32.0958L146.475 47.6012Z" fill="black"/>
<path d="M82.0795 73.7995L85.7377 83.8505L87.5795 83.1801L84.8885 75.7866L96.8961 79.5508L98.7379 78.8804L95.3191 69.4873L93.4773 70.1576L95.9384 76.9197L83.9213 73.1292L82.0795 73.7995ZM87.831 89.6018L88.6642 91.8909L99.8667 91.1508L90.8094 97.7846L91.6521 100.1L106.28 99.6029L105.447 97.3138L93.8356 97.9943L103.206 91.157L102.45 89.0784L90.8477 89.7851L100.209 82.9215L99.3564 80.5798L87.831 89.6018ZM102.006 105.46C104.3 104.804 106.697 105.332 107.482 107.489C108.315 109.778 106.675 111.657 104.582 112.538L102.006 105.46ZM95.5415 112.014C96.6237 114.987 98.9158 116.209 101.172 116.103L100.329 113.788C99.0059 113.673 97.9363 112.781 97.4096 111.334C96.5765 109.045 98.0734 107.1 100.348 106.063L103.767 115.456C104.04 115.387 104.329 115.282 104.592 115.186C108.328 113.826 110.71 110.546 109.36 106.836C108.009 103.126 104.117 102.01 100.276 103.408C96.4341 104.806 94.1721 108.252 95.5415 112.014ZM115.821 114.517C114.979 114.824 114.553 115.783 114.869 116.651C115.176 117.493 116.118 117.955 116.96 117.648C117.776 117.351 118.228 116.382 117.921 115.54C117.605 114.672 116.636 114.22 115.821 114.517ZM99.2756 121.046L100.09 123.282L113.166 118.522L112.352 116.286L99.2756 121.046Z" fill="black"/>
<path d="M5.99229 87.8564L14.2487 89.5752L16.234 95.0299L5.99229 87.8564Z" fill="#858585"/>
<path d="M19.3224 81.5512L8.05905 72.5693L13.7815 88.2917L19.3224 81.5512Z" fill="#FFD200"/>
<path d="M5.64885 84.5688L13.1276 86.0177" stroke="black" stroke-width="0.5"/>
<path d="M5.2449 86.8013L13.7562 88.2219" stroke="black" stroke-width="0.5"/>
<path d="M6.20627 82.2805L13.3782 83.841" stroke="black" stroke-width="0.5"/>
<path d="M6.61023 80.048L13.7821 81.6086" stroke="black" stroke-width="0.5"/>
<path d="M7.07004 77.9691L17.1031 80.2833" stroke="black" stroke-width="0.5"/>
<path d="M7.37639 75.9459L13.0413 77.1859" stroke="black" stroke-width="0.5"/>
<path d="M7.89204 74.0203L9.76174 74.3825" stroke="black" stroke-width="0.5"/>
<path d="M19.4687 82.9514L14.2487 89.5752L16.234 95.0299L19.4687 82.9514Z" fill="black"/>
<path d="M8.1149 72.7227L5.27283 86.878" stroke="black" stroke-width="0.5"/>
</svg>
