<?xml version="1.0" encoding="UTF-8" standalone="no"?>
<svg
   xmlns:dc="http://purl.org/dc/elements/1.1/"
   xmlns:cc="http://creativecommons.org/ns#"
   xmlns:rdf="http://www.w3.org/1999/02/22-rdf-syntax-ns#"
   xmlns:svg="http://www.w3.org/2000/svg"
   xmlns="http://www.w3.org/2000/svg"
   xmlns:sodipodi="http://sodipodi.sourceforge.net/DTD/sodipodi-0.dtd"
   xmlns:inkscape="http://www.inkscape.org/namespaces/inkscape"
   width="188"
   height="188"
   viewBox="0 0 188 188"
   version="1.1"
   id="svg4640"
   sodipodi:docname="ethberlinzwei.svg"
   style="fill:none"
   inkscape:version="0.92.4 (f8dce91, 2019-08-02)">
  <metadata
     id="metadata4646">
    <rdf:RDF>
      <cc:Work
         rdf:about="">
        <dc:format>image/svg+xml</dc:format>
        <dc:type
           rdf:resource="http://purl.org/dc/dcmitype/StillImage" />
        <dc:title></dc:title>
      </cc:Work>
    </rdf:RDF>
  </metadata>
  <defs
     id="defs4644" />
  <sodipodi:namedview
     pagecolor="#ffffff"
     bordercolor="#666666"
     borderopacity="1"
     objecttolerance="10"
     gridtolerance="10"
     guidetolerance="10"
     inkscape:pageopacity="0"
     inkscape:pageshadow="2"
     inkscape:window-width="1366"
     inkscape:window-height="713"
     id="namedview4642"
     showgrid="false"
     inkscape:zoom="3.7464789"
     inkscape:cx="92.203008"
     inkscape:cy="79.087594"
     inkscape:window-x="0"
     inkscape:window-y="27"
     inkscape:window-maximized="1"
     inkscape:current-layer="svg4640" />
  <circle
     cx="140"
     cy="76.526314"
     r="38"
     id="circle4610"
     style="fill:#ffd200" />
  <path
     d="m 28.0849,128.19952 0.171,0.4698 0.4698,-0.171 12.8245,-4.6677 0.4698,-0.171 -0.171,-0.4699 -0.8129,-2.2334 -0.171,-0.4698 -0.4699,0.171 -9.7783,3.559 -2.3155,-6.3618 7.4286,-2.7038 0.4699,-0.171 -0.1711,-0.4698 -0.8128,-2.2334 -0.1711,-0.4699 -0.4698,0.171 -7.4286,2.7039 -2.0863,-5.7319 9.4953,-3.456 0.4698,-0.171 -0.171,-0.4699 -0.8129,-2.2334 -0.171,-0.4698 -0.4698,0.171 -12.5413,4.5647 -0.4699,0.171 0.171,0.4698 z m 21.6522,-7.8808 0.171,0.4698 0.4698,-0.171 2.5762,-0.9376 0.4699,-0.171 -0.171,-0.4699 -6.5406,-17.97 5.1073,-1.858904 0.4698,-0.171 -0.171,-0.4698 -0.8129,-2.2334 -0.171,-0.4699 -0.4698,0.1711 -13.7304,4.997404 -0.4698,0.171 0.171,0.4699 0.8129,2.2334 0.171,0.4698 0.4698,-0.171 5.1072,-1.8589 3.1848,8.7501 z m 11.5509,-4.2042 0.171,0.4699 0.4699,-0.1711 2.5762,-0.9376 0.4698,-0.171 -0.171,-0.4699 -3.2994,-9.065 8.6291,-3.1407 3.2994,9.065 0.171,0.4698 0.4698,-0.171 2.5763,-0.9376 0.4698,-0.171 -0.171,-0.4699 -7.5245,-20.673204 -0.171,-0.4699 -0.4698,0.171 -2.5762,0.9377 -0.4699,0.171 0.171,0.4699 3.0702,8.4351 -8.6291,3.140704 -3.0701,-8.435104 -0.171,-0.4699 -0.4699,0.1711 -2.5762,0.9376 -0.4699,0.171 0.1711,0.4699 z"
     id="path4612"
     inkscape:connector-curvature="0"
     style="fill:#000000;stroke:#000000" />
  <path
     d="m 79.2749,96.065216 -2.6458,-7.269 3.8686,-1.4081 c 3.1509,-1.1468 5.1367,-0.3504 5.9656,1.9271 0.8971,2.4646 -0.2625,4.2292 -3.6943,5.4783 z m 3.7812,10.388904 -2.8955,-7.955404 5.1164,-1.8623 c 3.2758,-1.1922 5.497,-0.2342 6.3713,2.1681 0.9652,2.651804 -0.2624,4.617804 -3.9437,5.957704 z m -1.9533,3.4667 8.2674,-3.009 c 4.8669,-1.7714 6.7493,-5.1417 5.3185,-9.072604 -1.1468,-3.151 -3.6659,-4.248 -6.3605,-4.0798 1.0491,-1.1945 1.8966,-3.2342 1.0223,-5.6364 -1.4762,-4.0557 -5.1525,-4.8375 -10.1441,-3.0207 l -6.302,2.2937 z M 100.118,93.036716 c -0.778402,-2.7199 -0.152302,-5.5622 2.406,-6.4933 2.714,-0.9879 4.941,0.9572 5.986,3.4388 z m 7.771,7.664704 c 3.525,-1.283104 4.974,-4.000904 4.848,-6.675604 l -2.745,0.9992 c -0.136,1.5686 -1.193,2.8369 -2.909,3.4614 -2.714,0.9879 -5.021,-0.7871 -6.25,-3.4842 l 11.138,-4.0538 c -0.083,-0.3233 -0.208,-0.6665 -0.321,-0.9784 -1.613,-4.4301 -5.502,-7.2541 -9.901,-5.653 -4.399,1.601 -5.7223,6.2164 -4.0644,10.7712 1.657798,4.5549 5.7434,7.237004 10.2044,5.613204 z m 10.709,-4.427604 2.651,-0.9652 -3.44,-9.4529 4.145,-5.8897 -1.022,-2.8078 -4.378,6.2216 -1.26,-3.4629 -2.34,0.8516 z m 14.353,-5.2241 2.87,-1.0447 -5.485,-5.8472 -5.677,-15.5989 -2.652,0.9652 5.882,16.1605 z m -1.803,-21.7787 c 0.363,0.9984 1.501,1.5029 2.53,1.1282 0.998,-0.3634 1.545,-1.4811 1.182,-2.4794 -0.352,-0.9672 -1.501,-1.5029 -2.499,-1.1395 -1.03,0.3747 -1.565,1.5236 -1.213,2.4907 z m 7.74,19.6176 2.652,-0.9652 -5.643,-15.5053 -2.652,0.9652 z m 7.587,-2.7611 2.651,-0.9652 -2.918,-8.0179 c -0.851,-2.3398 -0.83,-6.1634 2.165,-7.2535 3.432,-1.249 4.862,2.2933 5.691,4.5708 l 2.862,7.8618 2.652,-0.9652 -2.862,-7.8618 c -1.68,-4.6173 -3.826,-7.7935 -8.599,-6.0562 -3.556,1.2945 -3.689,4.911 -3.72,5.6996 l -1.226,-3.3694 -2.34,0.8516 z"
     id="path4614"
     inkscape:connector-curvature="0"
     style="fill:#000000" />
  <path
     d="m 82.0795,112.32582 3.6582,10.051 1.8418,-0.6704 -2.691,-7.3935 12.0076,3.7642 1.8418,-0.6704 -3.4188,-9.3931 -1.8418,0.6703 2.4611,6.7621 -12.0171,-3.7905 z m 5.7515,15.8023 0.8332,2.2891 11.202498,-0.7401 -9.057298,6.6338 0.8427,2.3154 14.6279,-0.4971 -0.833,-2.2891 -11.6114,0.6805 9.3704,-6.8373 -0.756,-2.0786 -11.6023,0.7067 9.3613,-6.8636 -0.852602,-2.3417 z m 14.175,15.8582 c 2.294,-0.656 4.691,-0.128 5.476,2.029 0.833,2.289 -0.807,4.168 -2.9,5.049 z m -6.4645,6.554 c 1.0822,2.973 3.3743,4.195 5.6305,4.089 l -0.843,-2.315 c -1.3231,-0.115 -2.3927,-1.007 -2.9194,-2.454 -0.8331,-2.289 0.6638,-4.234 2.9384,-5.271 l 3.419,9.393 c 0.273,-0.069 0.562,-0.174 0.825,-0.27 3.736,-1.36 6.118,-4.64 4.768,-8.35 -1.351,-3.71 -5.243,-4.826 -9.084,-3.428 -3.8419,1.398 -6.1039,4.844 -4.7345,8.606 z m 20.2795,2.503 c -0.842,0.307 -1.268,1.266 -0.952,2.134 0.307,0.842 1.249,1.304 2.091,0.997 0.816,-0.297 1.268,-1.266 0.961,-2.108 -0.316,-0.868 -1.285,-1.32 -2.1,-1.023 z m -16.545402,6.529 0.814402,2.236 13.076,-4.76 -0.814,-2.236 z"
     id="path4616"
     inkscape:connector-curvature="0"
     style="fill:#000000" />
  <path
     d="m 5.99229,126.38272 8.25641,1.7188 1.9853,5.4547 z"
     id="path4618"
     inkscape:connector-curvature="0"
     style="fill:#858585" />
  <path
     d="m 19.3224,120.07752 -11.26335,-8.9819 5.72245,15.7224 z"
     id="path4620"
     inkscape:connector-curvature="0"
     style="fill:#ffd200" />
  <path
     d="m 5.64885,123.09512 7.47875,1.4489"
     id="path4622"
     inkscape:connector-curvature="0"
     style="stroke:#000000;stroke-width:0.5" />
  <path
     d="m 5.2449,125.32762 8.5113,1.4206"
     id="path4624"
     inkscape:connector-curvature="0"
     style="stroke:#000000;stroke-width:0.5" />
  <path
     d="m 6.20627,120.80682 7.17193,1.5605"
     id="path4626"
     inkscape:connector-curvature="0"
     style="stroke:#000000;stroke-width:0.5" />
  <path
     d="m 6.61023,118.57432 7.17187,1.5606"
     id="path4628"
     inkscape:connector-curvature="0"
     style="stroke:#000000;stroke-width:0.5" />
  <path
     d="m 7.07004,116.49542 10.03306,2.3142"
     id="path4630"
     inkscape:connector-curvature="0"
     style="stroke:#000000;stroke-width:0.5" />
  <path
     d="m 7.37639,114.47222 5.66491,1.24"
     id="path4632"
     inkscape:connector-curvature="0"
     style="stroke:#000000;stroke-width:0.5" />
  <path
     d="m 7.89204,112.54662 1.8697001,0.3622"
     id="path4634"
     inkscape:connector-curvature="0"
     style="stroke:#000000;stroke-width:0.5" />
  <path
     d="m 19.4687,121.47772 -5.22,6.6238 1.9853,5.4547 z"
     id="path4636"
     inkscape:connector-curvature="0"
     style="fill:#000000" />
  <path
     d="m 8.1149,111.24902 -2.84207,14.1553"
     id="path4638"
     inkscape:connector-curvature="0"
     style="stroke:#000000;stroke-width:0.5" />
</svg>
